<svg width="86" height="65" viewBox="0 0 86 65" fill="none" xmlns="http://www.w3.org/2000/svg">
<path d="M49.5333 9.26637C38.634 8.24299 25.8865 8.02999 17.3416 14.8495C8.79681 21.669 5.71987 31.3997 4.3414 42.2218C2.96294 53.044 4.93597 60.2163 11.5001 68.9468C18.0643 77.6772 27.4301 76.7504 38.2404 78.4728C49.0507 80.1952 59.5313 79.7556 68.5001 73.5C77.4689 67.2444 79.1576 61.5835 81.2343 50.8726C83.311 40.1618 81.1259 29.0659 75.141 19.9314C69.1562 10.7969 56.611 8.41421 45.9348 6L45.2684 8.92618C55.1822 11.168 67.0622 13.0896 72.6196 21.5718C78.1771 30.054 80.2061 40.3574 78.2777 50.3034C76.3493 60.2494 75.1017 65.2329 66.7734 71.0418C58.445 76.8507 48.7541 77.1093 38.7158 75.5099C28.6775 73.9105 20.0054 75.2546 13.91 67.1476C7.8146 59.0406 6.04862 52.6489 7.32865 42.5996C8.60868 32.5503 11.2894 23.524 19.224 17.1915C27.1587 10.859 39.4124 9.4031 49.5333 10.3534V9.26637Z" fill="black"/>
</svg>
