<svg width="356" height="367" viewBox="0 0 356 367" fill="none" xmlns="http://www.w3.org/2000/svg">
<path d="M195.378 39.7164C195.119 40.5033 195.547 41.3511 196.334 41.6101C197.12 41.869 197.968 41.441 198.227 40.654L195.378 39.7164ZM254.651 10.5834L255.809 9.63028C255.737 9.54325 255.656 9.46457 255.567 9.39572L254.651 10.5834ZM258.783 110.867L259.147 112.322L259.159 112.319L258.783 110.867ZM281.214 89.1189L281.698 87.6993L281.214 89.1189ZM330.569 103.711C330.286 104.489 330.689 105.35 331.467 105.632C332.246 105.914 333.106 105.512 333.389 104.733L330.569 103.711ZM159.476 28.3882C160.301 28.4645 161.031 27.8577 161.108 27.0328C161.184 26.2079 160.577 25.4773 159.752 25.401L159.476 28.3882ZM49.2299 231.691L47.7306 231.646L49.2299 231.691ZM177.721 361.815C178.52 361.595 178.989 360.769 178.769 359.97C178.549 359.171 177.723 358.702 176.924 358.923L177.721 361.815ZM207.366 334.758C206.902 335.444 207.081 336.377 207.767 336.841C208.452 337.306 209.385 337.127 209.85 336.441L207.366 334.758ZM248.158 319.288L249.404 318.454L248.158 319.288ZM225.727 354.036C224.898 354.036 224.227 354.707 224.227 355.536C224.227 356.364 224.898 357.036 225.727 357.036V354.036ZM217.286 269.053C217.901 268.499 217.951 267.55 217.397 266.935C216.842 266.319 215.894 266.269 215.278 266.824L217.286 269.053ZM229.922 294.206C230.749 294.171 231.392 293.472 231.357 292.644C231.322 291.816 230.623 291.174 229.796 291.209L229.922 294.206ZM258.358 266.5C257.564 266.734 257.11 267.569 257.344 268.363C257.579 269.158 258.413 269.612 259.207 269.377L258.358 266.5ZM306.822 275.136C307.461 275.664 308.406 275.573 308.934 274.934C309.461 274.295 309.371 273.35 308.732 272.823L306.822 275.136ZM262.626 255.023C262.5 254.204 261.734 253.643 260.915 253.769C260.096 253.896 259.535 254.662 259.661 255.481L262.626 255.023ZM272.125 284.899C272.817 285.354 273.748 285.162 274.203 284.47C274.658 283.778 274.466 282.848 273.774 282.392L272.125 284.899ZM274.429 255.004C274.292 254.187 273.519 253.636 272.702 253.772C271.885 253.909 271.333 254.683 271.47 255.5L274.429 255.004ZM284.627 282.546C285.354 282.942 286.266 282.675 286.662 281.948C287.059 281.22 286.792 280.309 286.064 279.912L284.627 282.546ZM295.09 259.722C295.224 258.904 294.669 258.133 293.851 258C293.033 257.867 292.263 258.422 292.129 259.24L295.09 259.722ZM292.353 278.423C292.805 279.117 293.734 279.313 294.429 278.861C295.123 278.409 295.319 277.48 294.867 276.786L292.353 278.423ZM114.752 275.48C115.581 275.48 116.252 274.808 116.252 273.98C116.252 273.151 115.581 272.48 114.752 272.48V275.48ZM168.623 272.999C169.416 273.239 170.254 272.791 170.494 271.998C170.735 271.206 170.287 270.368 169.494 270.128L168.623 272.999ZM123.016 246.794L124.462 247.194C124.679 246.408 124.229 245.593 123.448 245.358C122.668 245.123 121.842 245.554 121.59 246.33L123.016 246.794ZM130.445 291.537C131.133 291.998 132.065 291.814 132.526 291.126C132.987 290.438 132.804 289.506 132.116 289.045L130.445 291.537ZM136.319 251.113C136.369 250.286 135.738 249.575 134.912 249.526C134.085 249.476 133.374 250.106 133.325 250.933L136.319 251.113ZM142.935 287.97C143.655 288.379 144.571 288.128 144.98 287.407C145.39 286.687 145.138 285.772 144.418 285.362L142.935 287.97ZM157.566 255.391C157.643 254.566 157.036 253.835 156.211 253.758C155.387 253.682 154.656 254.288 154.579 255.113L157.566 255.391ZM164.834 288.001C165.571 288.379 166.475 288.087 166.852 287.349C167.23 286.612 166.938 285.708 166.2 285.331L164.834 288.001ZM170.276 136.513C170.76 135.841 170.608 134.904 169.936 134.419C169.264 133.935 168.326 134.087 167.842 134.759L170.276 136.513ZM11.4514 191.215L10.3594 192.243C10.479 192.37 10.6198 192.476 10.7756 192.554L11.4514 191.215ZM110.03 218.401L108.615 218.897C108.672 219.061 108.757 219.213 108.867 219.348L110.03 218.401ZM119.474 215.984L120.883 216.5L119.474 215.984ZM162.566 195.444L161.173 196.002L162.566 195.444ZM191.49 234.712L192.324 233.465C192.148 233.348 191.95 233.269 191.742 233.233L191.49 234.712ZM216.282 234.712L217.386 235.727L216.282 234.712ZM258.783 218.401L257.31 218.684L258.783 218.401ZM278.853 241.961L279.926 243.009C279.976 242.957 280.023 242.902 280.066 242.843L278.853 241.961ZM297.185 219.282C297.672 218.612 297.523 217.674 296.853 217.187C296.183 216.7 295.244 216.849 294.758 217.519L297.185 219.282ZM313.988 207.946C313.886 207.123 313.136 206.54 312.314 206.642C311.492 206.744 310.908 207.493 311.011 208.315L313.988 207.946ZM67.8442 77.5286C67.7823 76.7025 67.0624 76.0829 66.2363 76.1448C65.4102 76.2067 64.7907 76.9266 64.8526 77.7527L67.8442 77.5286ZM110.03 263.105L110.402 261.652C110.221 261.606 110.032 261.594 109.847 261.617L110.03 263.105ZM198.227 40.654C201.43 30.9185 208.098 17.9084 217.591 10.2721C222.309 6.47672 227.662 4.0579 233.605 3.94256C239.542 3.82732 246.264 6.00739 253.734 11.771L255.567 9.39572C247.69 3.31857 240.319 0.811676 233.546 0.943123C226.78 1.07446 220.806 3.83596 215.711 7.93446C205.577 16.0858 198.667 29.7174 195.378 39.7164L198.227 40.654ZM253.492 11.5364C254.049 12.2129 254.77 13.7209 255.285 16.3657C255.792 18.9699 256.075 22.549 255.868 27.236C255.452 36.6093 253.08 50.3125 246.735 69.312L249.58 70.2622C255.986 51.0813 258.434 37.0957 258.865 27.3688C259.08 22.5057 258.792 18.6817 258.23 15.7922C257.675 12.9433 256.827 10.8669 255.809 9.63028L253.492 11.5364ZM246.735 69.312C240.338 88.4658 240.588 99.8303 244.051 106.193C247.64 112.786 254.334 113.526 259.147 112.322L258.419 109.412C254.377 110.423 249.383 109.713 246.686 104.758C243.863 99.5718 243.226 89.2887 249.58 70.2622L246.735 69.312ZM259.159 112.319C267.342 110.2 278.464 106.529 284.903 102.387C286.523 101.345 287.927 100.224 288.917 99.027C289.904 97.834 290.595 96.4206 290.465 94.8574C290.335 93.2739 289.396 91.9171 287.946 90.7808C286.505 89.6508 284.43 88.6314 281.698 87.6993L280.729 90.5386C283.31 91.4189 285.029 92.3061 286.096 93.1419C287.154 93.9714 287.437 94.6393 287.476 95.1042C287.516 95.5893 287.323 96.2478 286.605 97.115C285.891 97.9781 284.771 98.9051 283.28 99.8642C277.273 103.728 266.555 107.305 258.407 109.415L259.159 112.319ZM281.698 87.6993C268.135 83.0722 253.684 83.5405 243.816 83.4656C241.329 83.4468 239.155 83.3949 237.337 83.2299C235.495 83.0626 234.151 82.7889 233.26 82.395C232.411 82.0196 232.178 81.6377 232.108 81.2857C232.013 80.807 232.121 79.9074 232.953 78.3462L230.306 76.9351C229.367 78.6966 228.866 80.3645 229.166 81.8703C229.49 83.503 230.654 84.5229 232.047 85.1386C233.397 85.7358 235.138 86.0426 237.066 86.2176C239.018 86.3947 241.299 86.4466 243.793 86.4656C253.847 86.5418 267.73 86.1039 280.729 90.5386L281.698 87.6993ZM232.953 78.3462C236.299 72.0687 242.501 66.9676 249.863 63.2743C257.211 59.5879 265.581 57.373 273.067 56.7836L272.832 53.7929C264.971 54.4117 256.222 56.7277 248.518 60.5928C240.827 64.451 234.044 69.922 230.306 76.9351L232.953 78.3462ZM273.067 56.7836C280.875 56.1689 300.581 53.809 315.723 58.753C323.237 61.2065 329.406 65.392 332.511 72.2993C335.626 79.2311 335.813 89.2498 330.569 103.711L333.389 104.733C338.77 89.8942 338.809 78.9953 335.247 71.0695C331.674 63.1193 324.635 58.5073 316.654 55.9012C300.805 50.7263 280.372 53.1993 272.832 53.7929L273.067 56.7836ZM159.752 25.401C141.745 23.7351 114.968 32.2161 92.1103 62.6641C69.2644 93.0957 50.3332 145.444 47.7306 231.646L50.7293 231.736C53.3212 145.885 72.1686 94.2241 94.5094 64.4652C116.838 34.7228 142.656 26.8321 159.476 28.3882L159.752 25.401ZM47.7306 231.646C46.4744 273.255 56.7102 311.861 78.4575 337.072C100.298 362.392 133.565 373.986 177.721 361.815L176.924 358.923C133.758 370.821 101.729 359.459 80.7291 335.113C59.6359 310.659 49.4867 272.891 50.7293 231.736L47.7306 231.646ZM209.85 336.441C214.029 330.275 220.943 322.163 228.1 317.691C231.679 315.455 235.155 314.233 238.286 314.442C241.324 314.645 244.291 316.213 246.911 320.123L249.404 318.454C246.357 313.907 242.605 311.724 238.486 311.449C234.462 311.18 230.345 312.751 226.511 315.147C218.842 319.938 211.648 328.44 207.366 334.758L209.85 336.441ZM246.911 320.123C253.919 330.582 255.328 338.962 252.116 344.599C248.887 350.267 240.505 354.036 225.727 354.036V357.036C240.721 357.036 250.639 353.253 254.723 346.084C258.826 338.883 256.563 329.139 249.404 318.454L246.911 320.123ZM215.278 266.824C212.752 269.099 210.123 271.94 208.153 274.924C206.211 277.867 204.77 281.159 204.956 284.279C205.052 285.876 205.575 287.409 206.638 288.768C207.692 290.115 209.22 291.22 211.221 292.074C215.186 293.767 221.226 294.572 229.922 294.206L229.796 291.209C221.255 291.568 215.749 290.746 212.4 289.315C210.743 288.608 209.672 287.776 209.001 286.919C208.34 286.074 208.013 285.135 207.951 284.1C207.823 281.954 208.836 279.335 210.657 276.577C212.45 273.86 214.893 271.208 217.286 269.053L215.278 266.824ZM259.207 269.377C264.182 267.908 272.607 266.424 281.565 266.794C290.538 267.165 299.856 269.387 306.822 275.136L308.732 272.823C301.059 266.49 290.995 264.181 281.689 263.797C272.368 263.412 263.615 264.948 258.358 266.5L259.207 269.377ZM259.661 255.481C260.263 259.378 261.581 265.483 263.596 271.187C264.604 274.039 265.799 276.83 267.187 279.206C268.563 281.563 270.195 283.628 272.125 284.899L273.774 282.392C272.399 281.488 271.05 279.873 269.777 277.694C268.516 275.535 267.395 272.933 266.425 270.187C264.485 264.695 263.206 258.778 262.626 255.023L259.661 255.481ZM271.47 255.5C272.075 259.108 273.428 264.743 275.543 269.994C276.601 272.62 277.864 275.19 279.345 277.372C280.818 279.542 282.566 281.421 284.627 282.546L286.064 279.912C284.584 279.104 283.159 277.65 281.828 275.688C280.505 273.738 279.334 271.377 278.326 268.873C276.308 263.864 275.005 258.444 274.429 255.004L271.47 255.5ZM292.129 259.24C291.729 261.7 291.248 265.569 291.107 269.209C291.037 271.028 291.05 272.827 291.21 274.382C291.364 275.874 291.672 277.378 292.353 278.423L294.867 276.786C294.603 276.381 294.341 275.498 294.194 274.075C294.054 272.715 294.038 271.071 294.105 269.325C294.24 265.838 294.704 262.095 295.09 259.722L292.129 259.24ZM114.752 272.48C114.764 272.48 114.818 272.48 114.898 272.494C114.967 272.507 115.136 272.543 115.33 272.659C115.543 272.787 115.817 273.034 115.948 273.441C116.076 273.834 116.004 274.172 115.934 274.362C115.867 274.545 115.778 274.664 115.741 274.71C115.698 274.764 115.665 274.794 115.659 274.8C115.648 274.81 115.672 274.787 115.755 274.733C116.101 274.505 116.864 274.115 118.065 273.636C120.428 272.694 124.223 271.512 129.114 270.622C138.891 268.843 152.959 268.248 168.623 272.999L169.494 270.128C153.283 265.212 138.721 265.825 128.577 267.671C123.506 268.593 119.517 269.828 116.954 270.849C115.693 271.352 114.708 271.831 114.107 272.226C113.953 272.327 113.79 272.445 113.643 272.578C113.54 272.672 113.264 272.928 113.117 273.33C113.031 273.564 112.957 273.94 113.095 274.366C113.237 274.806 113.535 275.081 113.785 275.231C114.195 275.477 114.616 275.48 114.752 275.48V272.48ZM121.57 246.394C120.059 251.862 118.67 260.622 119.411 269.23C120.15 277.801 123.039 286.571 130.445 291.537L132.116 289.045C125.827 284.828 123.108 277.186 122.4 268.972C121.696 260.796 123.022 252.4 124.462 247.194L121.57 246.394ZM133.325 250.933C133.025 255.949 133.113 263.772 134.362 270.988C134.987 274.596 135.912 278.111 137.259 281.068C138.598 284.006 140.423 286.542 142.935 287.97L144.418 285.362C142.68 284.374 141.199 282.48 139.989 279.823C138.786 277.185 137.918 273.942 137.318 270.476C136.118 263.546 136.029 255.964 136.319 251.113L133.325 250.933ZM154.579 255.113C154.175 259.451 154.173 266.25 155.489 272.622C156.785 278.897 159.464 285.254 164.834 288.001L166.2 285.331C162.125 283.245 159.689 278.124 158.427 272.015C157.185 266.002 157.183 259.51 157.566 255.391L154.579 255.113ZM167.842 134.759C156.045 151.123 134.052 173.537 106.503 187.522C78.9924 201.487 46.0601 207.002 12.1273 189.876L10.7756 192.554C45.7886 210.226 79.7558 204.464 107.861 190.197C135.927 175.949 158.264 153.174 170.276 136.513L167.842 134.759ZM12.5435 190.187C10.0244 187.511 7.50727 184.075 5.76998 180.347C4.02931 176.613 3.11626 172.685 3.65367 168.972C4.69335 161.788 11.4163 154.362 31.765 151.011L31.2775 148.051C10.5421 151.466 2.01592 159.344 0.684606 168.542C0.0365196 173.02 1.15751 177.552 3.05081 181.615C4.94749 185.684 7.66421 189.381 10.3594 192.243L12.5435 190.187ZM31.765 151.011C51.5789 147.748 68.469 158.098 81.6731 172.766C94.8674 187.423 104.136 206.143 108.615 218.897L111.445 217.904C106.873 204.882 97.4289 185.784 83.9028 170.759C70.3865 155.744 52.5478 144.548 31.2775 148.051L31.765 151.011ZM108.867 219.348C109.945 220.672 111.962 222.415 114.376 222.497C115.658 222.541 116.94 222.107 118.083 221.079C119.192 220.081 120.125 218.568 120.883 216.5L118.066 215.468C117.407 217.266 116.697 218.291 116.077 218.849C115.491 219.376 114.958 219.516 114.479 219.499C113.37 219.461 112.082 218.546 111.193 217.453L108.867 219.348ZM120.883 216.5C121.73 214.188 123.901 209.473 126.924 204.268C129.947 199.061 133.764 193.465 137.878 189.328C142.062 185.12 146.203 182.771 149.919 183.236C153.527 183.687 157.538 186.925 161.173 196.002L163.958 194.886C160.214 185.538 155.593 180.922 150.291 180.259C145.097 179.61 140.052 182.887 135.751 187.212C131.379 191.609 127.412 197.453 124.329 202.761C121.246 208.071 118.99 212.947 118.066 215.468L120.883 216.5ZM161.173 196.002C167.121 210.855 173.249 220.623 178.545 226.807C181.193 229.899 183.644 232.108 185.775 233.609C187.883 235.093 189.754 235.937 191.238 236.19L191.742 233.233C190.865 233.083 189.415 232.503 187.502 231.156C185.611 229.824 183.34 227.795 180.823 224.855C175.789 218.977 169.816 209.514 163.958 194.886L161.173 196.002ZM190.656 235.958C193.358 237.766 197.883 239.928 202.778 240.564C207.708 241.204 213.179 240.302 217.386 235.727L215.178 233.696C211.83 237.337 207.462 238.147 203.164 237.589C198.831 237.026 194.738 235.08 192.324 233.465L190.656 235.958ZM217.386 235.727C219.796 233.106 223.276 228.389 227.087 223.58C230.956 218.695 235.235 213.62 239.399 210.02C241.48 208.221 243.473 206.843 245.317 206.032C247.157 205.223 248.733 205.027 250.078 205.403C251.402 205.773 252.757 206.77 254.025 208.874C255.305 210.998 256.442 214.167 257.31 218.684L260.256 218.117C259.353 213.421 258.128 209.87 256.595 207.326C255.05 204.762 253.141 203.144 250.886 202.514C248.652 201.889 246.336 202.307 244.109 203.286C241.885 204.264 239.635 205.85 237.437 207.751C233.041 211.551 228.613 216.822 224.735 221.717C220.798 226.686 217.49 231.182 215.178 233.696L217.386 235.727ZM257.31 218.684C258.741 226.128 260.462 231.688 262.338 235.768C264.208 239.84 266.271 242.525 268.433 244.108C270.635 245.72 272.893 246.15 274.959 245.77C276.977 245.399 278.684 244.28 279.926 243.009L277.78 240.913C276.857 241.857 275.681 242.587 274.416 242.819C273.199 243.043 271.772 242.834 270.206 241.687C268.6 240.512 266.811 238.318 265.064 234.516C263.321 230.723 261.658 225.414 260.256 218.117L257.31 218.684ZM280.066 242.843L297.185 219.282L294.758 217.519L277.639 241.079L280.066 242.843ZM311.011 208.315C312.497 220.286 316.427 237.507 323.451 250.151C326.961 256.468 331.331 261.804 336.71 264.684C342.184 267.615 348.529 267.91 355.654 264.455L354.346 261.756C348.013 264.826 342.685 264.481 338.127 262.04C333.475 259.549 329.456 254.781 326.074 248.694C319.315 236.528 315.452 219.737 313.988 207.946L311.011 208.315ZM64.8526 77.7527C67.216 109.298 72.2389 156.451 79.632 195.376C83.326 214.826 87.626 232.301 92.511 244.761C94.9491 250.98 97.5725 256.054 100.408 259.506C103.228 262.938 106.507 265.049 110.213 264.594L109.847 261.617C107.649 261.886 105.284 260.715 102.726 257.602C100.185 254.508 97.6989 249.774 95.304 243.666C90.523 231.471 86.2639 214.217 82.5793 194.817C75.2151 156.043 70.203 109.013 67.8442 77.5286L64.8526 77.7527ZM109.658 264.559C111.554 265.044 114.137 264.213 116.694 261.679C119.284 259.111 122.039 254.639 124.442 247.259L121.59 246.33C119.271 253.448 116.714 257.434 114.581 259.548C112.415 261.696 110.866 261.771 110.402 261.652L109.658 264.559Z" fill="black"/>
</svg>
