<svg width="87" height="86" viewBox="0 0 87 86" fill="none" xmlns="http://www.w3.org/2000/svg">
<mask id="path-1-inside-1_117_54" fill="white">
<path d="M12.0658 3.16399C8.87721 12.9933 5.87345 51.4581 10.2689 60.8053C14.6643 70.1524 22.4501 77.4563 32.0309 81.2204C41.6117 84.9844 52.2621 84.9236 61.7997 81.0503C71.3373 77.1771 79.04 69.7847 83.3294 60.3879C87.6189 50.9911 88.1703 40.3015 84.8707 30.5093C81.5711 20.7171 74.6704 12.5638 65.5824 7.72007C56.4945 2.87635 45.9075 1.70897 35.9907 4.45711C26.074 7.20525 5.33364 23.0071 0 31.8474L3.54934 34.0104C8.33358 26.0807 28.1989 10.9438 37.0941 8.47875C45.9894 6.01368 55.4859 7.06082 63.6377 11.4056C71.7895 15.7504 77.9794 23.0638 80.9391 31.8474C83.8989 40.6309 83.4042 50.2195 79.5566 58.6484C75.709 67.0772 68.7998 73.7082 60.2446 77.1824C51.6895 80.6567 42.1361 80.7113 33.5422 77.335C24.9483 73.9587 17.9645 67.4071 14.0218 59.0227C10.0791 50.6384 13.1521 13.2739 16.0123 4.45711L12.0658 3.16399Z"/>
</mask>
<path d="M12.0658 3.16399L14.8683 -5.38858L6.29039 -8.19929L3.50503 0.386846L12.0658 3.16399ZM0 31.8474L-7.70607 27.198L-12.3348 34.8699L-4.68354 39.5327L0 31.8474ZM3.54934 34.0104L-1.1342 41.6957L6.58536 46.4001L11.2554 38.6597L3.54934 34.0104ZM16.0123 4.45711L24.5731 7.23425L27.342 -1.30131L18.8147 -4.09546L16.0123 4.45711ZM3.50503 0.386846C1.50627 6.54822 -0.0648049 19.692 -0.665452 31.7164C-0.975348 37.9202 -1.04918 44.2507 -0.738732 49.7454C-0.453995 54.785 0.203493 60.5501 2.12445 64.6351L18.4133 56.9754C18.419 56.9874 18.3353 56.8052 18.2094 56.3459C18.0879 55.9028 17.9561 55.3089 17.8274 54.5477C17.5681 53.014 17.3642 51.0586 17.2326 48.73C16.9697 44.0765 17.0219 38.4238 17.3121 32.6144C17.9117 20.6123 19.4368 9.60902 20.6267 5.94113L3.50503 0.386846ZM2.12445 64.6351C7.49411 76.054 17.0119 84.9895 28.74 89.5971L35.3219 72.8437C27.8883 69.9232 21.8346 64.2509 18.4133 56.9754L2.12445 64.6351ZM28.74 89.5971C40.4692 94.2052 53.51 94.1306 65.1861 89.389L58.4134 72.7117C51.0142 75.7165 42.7543 75.7637 35.3219 72.8437L28.74 89.5971ZM65.1861 89.389C76.8609 84.6478 86.2767 75.6044 91.5167 64.1253L75.1421 56.6506C71.8032 63.965 65.8138 69.7064 58.4134 72.7117L65.1861 89.389ZM91.5167 64.1253C96.7562 52.6473 97.429 39.5938 93.3995 27.6354L76.3419 33.3831C78.9115 41.0091 78.4815 49.3349 75.1421 56.6506L91.5167 64.1253ZM93.3995 27.6354C89.3696 15.6759 80.9371 5.70532 69.8156 -0.222269L61.3493 15.6624C68.4036 19.4222 73.7725 25.7582 76.3419 33.3831L93.3995 27.6354ZM69.8156 -0.222269C58.6926 -6.15059 45.7299 -7.58102 33.5872 -4.21602L38.3942 13.1302C46.085 10.999 54.2963 11.9033 61.3493 15.6624L69.8156 -0.222269ZM33.5872 -4.21602C26.8545 -2.35025 18.0278 3.22293 10.8248 8.7069C3.6152 14.196 -4.09849 21.2186 -7.70607 27.198L7.70607 36.4967C9.43213 33.6359 14.7554 28.3375 21.7286 23.0285C28.7084 17.7144 35.2102 14.0126 38.3942 13.1302L33.5872 -4.21602ZM-4.68354 39.5327L-1.1342 41.6957L8.23288 26.3251L4.68354 24.162L-4.68354 39.5327ZM11.2554 38.6597C11.8363 37.6969 13.2975 35.9138 15.7979 33.5082C18.1797 31.2167 21.1175 28.7277 24.2324 26.3558C27.3475 23.9839 30.5251 21.8165 33.3619 20.1351C36.3429 18.3681 38.4356 17.4462 39.4976 17.1519L34.6906 -0.194377C31.305 0.743844 27.5788 2.63845 24.1838 4.65076C20.6445 6.74862 16.8889 9.32328 13.3278 12.0349C9.76647 14.7466 6.28491 17.6826 3.3184 20.5366C0.470531 23.2765 -2.34552 26.359 -4.15674 29.361L11.2554 38.6597ZM39.4976 17.1519C46.1669 15.3037 53.2877 16.0878 59.4046 19.3479L67.8708 3.46327C57.684 -1.96612 45.8118 -3.2763 34.6906 -0.194377L39.4976 17.1519ZM59.4046 19.3479C65.5228 22.6088 70.1809 28.105 72.4103 34.7213L89.468 28.9735C85.778 18.0227 78.0563 8.89193 67.8708 3.46327L59.4046 19.3479ZM72.4103 34.7213C74.6401 41.3386 74.2669 48.5633 71.3693 54.911L87.7439 62.3857C92.5416 51.8757 93.1576 39.9233 89.468 28.9735L72.4103 34.7213ZM71.3693 54.911C68.4723 61.2575 63.2762 66.2375 56.8583 68.8438L63.631 85.5211C74.3234 81.1788 82.9458 72.8969 87.7439 62.3857L71.3693 54.911ZM56.8583 68.8438C50.4416 71.4497 43.2787 71.4905 36.8332 68.9583L30.2512 85.7117C40.9935 89.9321 52.9373 89.8638 63.631 85.5211L56.8583 68.8438ZM36.8332 68.9583C30.3865 66.4255 25.1347 61.5055 22.1662 55.1929L5.87731 62.8526C10.7942 73.3087 19.5101 81.4918 30.2512 85.7117L36.8332 68.9583ZM22.1662 55.1929C22.2165 55.2999 21.9922 54.7927 21.7501 53.2431C21.5295 51.8314 21.3595 49.9979 21.2577 47.7861C21.0546 43.3694 21.1459 37.9606 21.4523 32.3971C21.7576 26.8537 22.2678 21.3143 22.8662 16.675C23.4923 11.8218 24.1401 8.56882 24.5731 7.23425L7.45145 1.67997C6.4543 4.75379 5.64549 9.47768 5.01413 14.3721C4.35518 19.4804 3.80716 25.4592 3.47955 31.4071C3.15305 37.3349 3.03655 43.3902 3.27674 48.613C3.39668 51.221 3.61105 53.751 3.96589 56.0219C4.29917 58.1549 4.84131 60.6495 5.87731 62.8526L22.1662 55.1929ZM18.8147 -4.09546L14.8683 -5.38858L9.26343 11.7166L13.2098 13.0097L18.8147 -4.09546Z" fill="black" mask="url(#path-1-inside-1_117_54)"/>
</svg>
