<svg width="86" height="86" viewBox="0 0 86 86" fill="none" xmlns="http://www.w3.org/2000/svg">
<mask id="path-1-inside-1_117_62" fill="white">
<path d="M75.8491 34.2447C79.0011 43.8313 80.1941 51.2616 75.8491 60.378C71.5042 69.4944 63.8079 76.6179 54.3372 80.289C44.8666 83.9601 34.3386 83.9008 24.9106 80.1232C15.4826 76.3456 7.86855 69.1357 3.6284 59.9709C-0.61174 50.8062 -1.15681 40.3804 2.10485 30.83C5.36652 21.2796 12.1879 13.3276 21.1714 8.60352C30.1549 3.87941 40.6202 2.74085 50.423 5.42113C60.2257 8.10142 80.7277 23.5131 86 32.1351L82.4915 34.2447C77.7622 26.5108 58.1253 11.7477 49.3323 9.34347C40.5393 6.93927 31.1519 7.96055 23.0938 12.1981C15.0356 16.4356 8.91691 23.5684 5.9912 32.1351C3.06551 40.7018 3.55444 50.0536 7.35783 58.2743C11.1612 66.4951 17.991 72.9623 26.4478 76.3508C34.9047 79.7393 44.3482 79.7925 52.8434 76.4995C61.3385 73.2066 68.242 66.8168 72.1394 58.6395C76.0368 50.4621 74.7754 44.105 71.9481 35.5059L75.8491 34.2447Z"/>
</mask>
<path d="M75.8491 34.2447L73.0806 25.6811L81.6017 22.9263L84.3989 31.4336L75.8491 34.2447ZM86 32.1351L93.6782 27.4399L98.4087 35.1757L90.6377 39.8482L86 32.1351ZM82.4915 34.2447L87.1292 41.9578L79.4735 46.561L74.8133 38.9399L82.4915 34.2447ZM71.9481 35.5059L63.3984 38.317L60.5733 29.7247L69.1795 26.9423L71.9481 35.5059ZM84.3989 31.4336C87.8252 41.8546 89.7968 52.0321 83.9736 64.2501L67.7247 56.5058C70.5913 50.4911 70.177 45.8079 67.2994 37.0558L84.3989 31.4336ZM83.9736 64.2501C78.6344 75.4526 69.1879 84.185 57.5901 88.6806L51.0844 71.8974C58.428 69.0508 64.374 63.5361 67.7247 56.5058L83.9736 64.2501ZM57.5901 88.6806C45.9941 93.1755 33.1073 93.103 21.5632 88.4775L28.258 71.7689C35.5699 74.6986 43.739 74.7447 51.0844 71.8974L57.5901 88.6806ZM21.5632 88.4775C10.0172 83.8512 0.670914 75.0125 -4.53975 63.75L11.7966 56.1919C15.0662 63.2589 20.9481 68.8399 28.258 71.7689L21.5632 88.4775ZM-4.53975 63.75C-9.75146 52.4853 -10.4226 39.6643 -6.41215 27.9213L10.6218 33.7388C8.10901 41.0966 8.52798 49.1271 11.7966 56.1919L-4.53975 63.75ZM-6.41215 27.9213C-2.40231 16.1802 5.97607 6.42569 16.9825 0.637783L25.3603 16.5693C18.3998 20.2296 13.1354 26.379 10.6218 33.7388L-6.41215 27.9213ZM16.9825 0.637783C27.9867 -5.14897 40.7978 -6.54097 52.7966 -3.26021L48.0493 14.1025C40.4427 12.0227 32.3231 12.9078 25.3603 16.5693L16.9825 0.637783ZM52.7966 -3.26021C59.4571 -1.4391 68.1901 4.00133 75.3158 9.35408C82.4392 14.7051 90.089 21.5704 93.6782 27.4399L78.3218 36.8303C76.6386 34.0778 71.4013 28.9263 64.5049 23.7459C57.6109 18.5672 51.1916 14.9617 48.0493 14.1025L52.7966 -3.26021ZM90.6377 39.8482L87.1292 41.9578L77.8538 26.5316L81.3623 24.422L90.6377 39.8482ZM74.8133 38.9399C74.2549 38.0268 72.826 36.3018 70.3556 33.9568C68.0062 31.7266 65.1063 29.3023 62.0299 26.9911C58.9535 24.6799 55.8155 22.5681 53.0144 20.93C50.071 19.2086 48.006 18.3112 46.9586 18.0248L51.7059 0.662131C55.055 1.57784 58.742 3.42743 62.1013 5.392C65.603 7.43986 69.3185 9.95303 72.8416 12.5999C76.3648 15.2467 79.8104 18.1135 82.7478 20.9017C85.5642 23.5751 88.3634 26.5957 90.1697 29.5495L74.8133 38.9399ZM46.9586 18.0248C40.3617 16.2211 33.3201 16.9889 27.2827 20.1638L18.9049 4.23232C28.9837 -1.06782 40.7168 -2.34255 51.7059 0.662131L46.9586 18.0248ZM27.2827 20.1638C21.2475 23.3375 16.6857 28.6678 14.5082 35.0438L-2.52579 29.2264C1.14807 18.469 8.82379 9.53362 18.9049 4.23232L27.2827 20.1638ZM14.5082 35.0438C12.3313 41.4179 12.6942 48.3745 15.526 54.4953L-0.810326 62.0534C-5.58528 51.7327 -6.20032 39.9857 -2.52579 29.2264L14.5082 35.0438ZM15.526 54.4953C18.3588 60.6183 23.4565 65.4566 29.7953 67.9965L23.1004 84.7051C12.5255 80.4679 3.96357 72.3718 -0.810326 62.0534L15.526 54.4953ZM29.7953 67.9965C36.136 70.5371 43.2207 70.5771 49.5905 68.1079L56.0962 84.8912C45.4758 89.0079 33.6734 88.9415 23.1004 84.7051L29.7953 67.9965ZM49.5905 68.1079C55.9586 65.6395 61.1119 60.8585 64.015 54.7673L80.2638 62.5116C75.3722 72.7751 66.7184 80.7737 56.0962 84.8912L49.5905 68.1079ZM64.015 54.7673C66.3784 49.8084 66.0209 46.2932 63.3984 38.317L80.4978 32.6948C83.5299 41.9168 85.6952 51.1158 80.2638 62.5116L64.015 54.7673ZM69.1795 26.9423L73.0806 25.6811L78.6177 42.8083L74.7166 44.0695L69.1795 26.9423Z" fill="black" mask="url(#path-1-inside-1_117_62)"/>
</svg>
