<svg width="86" height="86" viewBox="0 0 86 86" fill="none" xmlns="http://www.w3.org/2000/svg">
<path d="M81.5 64.4163C81.5 69.9055 79.8058 72.9758 77.4918 74.931C74.9654 77.0657 71.07 78.4073 65.7509 79.0448C60.4843 79.676 54.3976 79.5573 47.9384 79.2491C46.2539 79.1687 44.5358 79.0747 42.8064 78.9801C38.0552 78.7202 33.2189 78.4557 28.7616 78.4557C17.2505 78.4557 11.9624 76.1592 9.06878 72.3201C5.85622 68.0579 4.50002 60.645 4.50002 47.4481C4.50002 23.3015 22.1436 4.5 43 4.5C52.424 4.5 62.0004 12.2556 69.5581 24.7151C76.9738 36.9406 81.5 52.2471 81.5 64.4163Z" stroke="black" stroke-width="9"/>
</svg>
