<svg width="87" height="87" viewBox="0 0 87 87" fill="none" xmlns="http://www.w3.org/2000/svg">
<path d="M86.5 49C86.5 67.9328 81.7054 76.9509 74.1553 81.3172C70.3527 83.5162 65.8005 84.5681 60.6892 85.0648C56.0878 85.5121 51.0722 85.5068 45.7798 85.5012C45.1899 85.5006 44.5966 85.5 44 85.5C42.642 85.5 41.2997 85.5081 39.9753 85.5161C35.4899 85.5431 31.2102 85.569 27.2211 85.2748C22.0593 84.8942 17.4461 83.9802 13.5838 81.8736C5.92174 77.6943 1 68.688 1 49C1 25.6051 20.4438 11 44 11C55.7735 11 66.4028 14.6566 74.0806 21.2244C81.7511 27.7859 86.5 37.2721 86.5 49Z" stroke="black"/>
</svg>
