<svg width="86" height="86" viewBox="0 0 86 86" fill="none" xmlns="http://www.w3.org/2000/svg">
<path d="M29.8783 3.34726C30.8026 3.43071 31.8392 3.55135 32.9657 3.70714C32.6546 3.82304 32.3429 3.94242 32.0307 4.06518C31.2454 3.9654 30.5124 3.88473 29.8408 3.82402L29.8783 3.34726ZM2.68222 48.2331C2.25904 43.8039 2.57771 39.377 3.58855 35.1239C2.83013 39.3833 2.7364 43.8055 3.15505 48.1873C4.11631 58.2484 8.87909 67.5608 16.4685 74.2177C24.0579 80.8746 33.8998 84.3722 43.9788 83.994C54.0579 83.6159 63.6112 79.3906 70.6826 72.1836C77.754 64.9767 81.8087 55.3335 82.0166 45.2286C82.2245 35.1237 78.57 25.3212 71.801 17.8283C70.0597 15.9008 67.135 14.123 63.6313 12.5283C60.1149 10.9279 55.9639 9.48939 51.7222 8.2613C46.2251 6.66974 40.5532 5.42524 35.8798 4.639C36.2117 4.52951 36.5409 4.42506 36.8669 4.3259C41.4414 5.13437 46.8438 6.35442 52.093 7.89472C56.3892 9.15537 60.5698 10.6268 64.1016 12.2562C67.6452 13.8911 70.4875 15.6636 72.1524 17.5066C79.003 25.0898 82.7019 35.0109 82.4915 45.2385C82.2811 55.4661 78.1772 65.226 71.0206 72.5197C63.8639 79.8134 54.196 84.0892 43.9965 84.4719C33.797 84.8546 23.8372 81.3152 16.1565 74.5783C8.47569 67.8413 3.65515 58.4163 2.68222 48.2331Z" stroke="black"/>
</svg>
