<svg width="86" height="86" viewBox="0 0 86 86" fill="none" xmlns="http://www.w3.org/2000/svg">
<path d="M45.8838 9.21576C35.1569 8.20823 22.6111 7.99854 14.2015 14.7124C5.79183 21.4262 2.68709 23.7696 1.33044 34.424C-0.0262178 45.0784 2.82729 55.8412 9.28758 64.4363C15.7479 73.0315 25.3085 78.7853 35.9477 80.481C46.5869 82.1767 57.4707 79.6814 66.2976 73.5227C75.1245 67.364 81.2025 58.0248 83.2463 47.4799C85.2902 36.935 83.1397 26.0111 77.2495 17.0181C71.3594 8.02515 52.8494 8.3768 42.3422 6L41.6863 8.88084C51.4432 11.0879 69.2985 10.2823 74.768 18.6331C80.2375 26.9838 82.2345 37.1276 80.3366 46.9195C78.4387 56.7114 72.7947 65.3837 64.5982 71.1026C56.4016 76.8214 46.2951 79.1386 36.4156 77.5639C26.5361 75.9893 17.6583 70.6465 11.6593 62.6651C5.66038 54.6837 3.01064 44.6896 4.27042 34.796C5.53019 24.9024 8.24499 23.2525 16.0541 17.0181C23.8631 10.7837 35.9229 9.35037 45.8838 10.2859V9.21576Z" fill="black"/>
</svg>
