<svg width="86" height="86" viewBox="0 0 86 86" fill="none" xmlns="http://www.w3.org/2000/svg">
<path d="M72 44.5388C65.7212 51.75 66.5512 57.5983 61.4843 62.7377C56.4174 67.8772 49.5244 70.841 42.2829 70.9938C35.0415 71.1466 28.0279 68.4763 22.7456 63.5553C17.4633 58.6343 14.3328 51.8542 14.025 44.6685C13.7173 37.4827 16.2568 30.4632 21.0992 25.1147C25.9417 19.7661 32.7016 16.5141 39.93 16.0559C47.1584 15.5977 54.2799 17.9697 59.768 22.6634C65.256 27.3571 66.9526 37.5022 67.5675 44.6685H66.6444C66.0976 38.2973 64.1677 28.4229 59.2885 24.25C54.4094 20.0771 46.5521 18.6935 40.1258 19.1009C33.6994 19.5083 27.6895 22.3994 23.3843 27.1546C19.0792 31.9097 16.8214 38.1504 17.095 44.5388C17.3686 50.9273 20.1518 56.9551 24.848 61.3301C29.5442 65.7051 35.7796 68.0791 42.2176 67.9433C48.6556 67.8074 54.7838 65.1724 59.2885 60.6032C63.7933 56.034 63.8749 50.375 68.9272 44.5388H72Z" fill="black"/>
</svg>
