<svg width="97" height="50" viewBox="0 0 97 50" fill="none" xmlns="http://www.w3.org/2000/svg">
<path d="M63.0091 28.3C62.5939 28.3258 62.2487 28.1869 61.9733 27.8834C61.696 27.5479 61.5095 27.1267 61.4139 26.6196L59.5953 14.3728C59.438 13.3887 59.2316 12.648 58.9763 12.1509C58.753 11.6518 58.3439 11.2604 57.7492 10.9767C57.0886 10.6651 56.8363 10.2158 56.9922 9.62903C57.1241 9.17197 57.3419 8.80577 57.6454 8.53043C57.9808 8.2531 58.407 8.14649 58.924 8.21057C59.8621 8.34467 60.887 8.58561 61.9987 8.93337C62.5097 8.90163 63.1635 8.845 63.96 8.76347C64.7884 8.67996 65.6328 8.59545 66.4931 8.50995C67.3854 8.42248 68.1659 8.34195 68.8346 8.26836C69.5034 8.19476 69.9325 8.13604 70.1222 8.0922C70.9806 7.97477 71.7731 7.82937 72.4997 7.65599C73.2583 7.48063 73.8712 7.28227 74.3384 7.06088C74.7137 6.90933 75.1279 6.86756 75.581 6.93561L78.9372 7.54474C79.4562 7.64076 79.6397 8.01411 79.4877 8.66478C79.4417 8.95619 79.3746 9.42525 79.2865 10.072C79.2304 10.7167 79.1752 11.3774 79.1211 12.054C79.0649 12.6987 79.0148 13.1828 78.9708 13.5061C78.9127 14.1189 78.8375 14.9732 78.7452 16.069C78.651 17.1329 78.5588 18.2288 78.4685 19.3565C78.4102 20.4823 78.3549 21.3995 78.3027 22.1081C78.636 22.3118 78.9582 22.5964 79.2695 22.9618C79.6107 23.2933 79.7833 23.491 79.7873 23.5548C79.8111 23.9381 79.6901 24.3143 79.4245 24.6835C79.1589 25.0527 78.8364 25.2811 78.4571 25.3688C77.4311 25.3684 76.1047 25.4347 74.4778 25.5678C72.849 25.669 71.1901 25.8041 69.5014 25.9731C67.8445 26.1401 66.3793 26.2952 65.1058 26.4384C64.912 26.9314 64.6183 27.3664 64.225 27.7435C63.8615 28.0867 63.4563 28.2722 63.0091 28.3ZM89.8674 34.0863C89.2925 34.122 88.9054 33.8254 88.706 33.1965C88.5007 32.4719 88.3524 31.6315 88.2609 30.6753C88.1695 29.7191 88.1039 28.9216 88.0642 28.2829C88.0543 28.1232 88.0474 28.0114 88.0434 27.9475L86.7938 7.82629C86.7382 6.93201 86.6487 6.26429 86.5251 5.8231C86.4334 5.37993 86.235 5.02354 85.9297 4.75395C85.6224 4.45242 85.1534 4.12886 84.5228 3.78329C84.1915 3.61149 83.9381 3.40281 83.7625 3.15721C83.6169 2.8777 83.6141 2.57329 83.7539 2.24399C83.9757 1.68517 84.2892 1.31302 84.6945 1.12754C85.0998 0.942062 85.5609 0.881353 86.0779 0.945432C86.8204 1.02756 87.6028 1.23547 88.425 1.56915C89.2453 1.87088 89.9219 2.18154 90.4547 2.50113C91.0554 2.88062 91.3676 3.262 91.3914 3.64526C91.3534 4.06443 91.3092 4.64428 91.259 5.38481C91.2088 6.12535 91.2065 6.86291 91.2522 7.5975L92.4839 27.4313C92.5335 28.2297 92.4933 29.13 92.3631 30.132C92.2649 31.132 92.0161 32.0291 91.6165 32.8234C91.215 33.5858 90.632 34.0067 89.8674 34.0863ZM74.5176 46.3413C74.0365 46.3391 73.4846 46.2291 72.8619 46.0113C72.2711 45.7915 71.7483 45.3751 71.2935 44.7621C70.8406 44.1811 70.5804 43.3476 70.513 42.2617L70.2958 38.7644C70.2363 37.8063 70.1607 37.1056 70.069 36.6624C70.0073 36.1853 69.8558 35.81 69.6144 35.5365C69.3729 35.2629 68.9699 34.9673 68.4051 34.6497C68.1057 34.4759 67.9012 34.2802 67.7915 34.0626C67.7137 33.843 67.7438 33.5526 67.8817 33.1913C68.1035 32.6325 68.418 32.2763 68.8253 32.1228C69.2645 31.9673 69.7096 31.9076 70.1607 31.9437C70.7096 32.0058 71.3114 32.1448 71.966 32.3606C72.6506 32.5425 73.2414 32.7623 73.7383 33.02C74.1035 33.2217 74.4049 33.4275 74.6423 33.6371C74.9097 33.8129 75.0514 34.0285 75.0672 34.2841C74.9732 34.8349 74.9171 35.4797 74.8988 36.2182C74.8806 36.9568 74.8903 37.6294 74.9279 38.2363L75.1243 41.3982C75.1739 42.1966 75.3164 42.6848 75.5519 42.8625C75.7854 43.0083 76.1427 43.0823 76.6237 43.0845C77.8394 43.0411 79.1179 42.9777 80.4593 42.8944C81.8327 42.8091 83.4426 42.661 85.2891 42.4501C87.3591 42.2254 89.1348 41.9067 90.616 41.4941C92.0973 41.0815 93.0735 40.7964 93.5447 40.6389C93.8881 40.4894 94.1745 40.4555 94.404 40.5375C94.6336 40.6194 94.8182 40.7522 94.9578 40.9359C95.2332 41.2394 95.5154 41.6547 95.8047 42.1818C96.0939 42.7089 96.2445 43.0682 96.2564 43.2599C96.2722 43.5154 96.1004 43.8467 95.741 44.2537C95.4134 44.6588 95.1379 44.8683 94.9143 44.8822C94.4972 44.876 93.8404 44.8848 92.9442 44.9084C92.0499 44.9639 91.0279 45.0274 89.8781 45.0988C88.7283 45.1702 87.5476 45.2596 86.3359 45.3669C86.0165 45.3867 85.6173 45.4115 85.1382 45.4412C84.693 45.501 84.184 45.5646 83.6111 45.6323C82.623 45.7257 81.5391 45.8251 80.3593 45.9304C79.2115 46.0338 78.1106 46.1182 77.0567 46.1836C76.0047 46.281 75.1583 46.3336 74.5176 46.3413ZM65.2087 23.4503C66.4244 23.4069 67.9085 23.2987 69.6612 23.1257C71.4438 22.9188 73.0827 22.7208 74.5778 22.5318C74.574 21.9549 74.5544 21.1225 74.5189 20.0346C74.5134 18.9128 74.4899 17.7601 74.4484 16.5764C74.405 15.3607 74.3535 14.2738 74.294 13.3157C74.2664 12.3555 74.2427 11.7158 74.2229 11.3964C74.205 11.1089 74.1303 10.9372 73.9985 10.8813C73.8968 10.7914 73.7501 10.7524 73.5584 10.7643C73.2071 10.7862 72.4735 10.8478 71.3577 10.9491C70.2737 11.0485 69.0631 11.1718 67.7256 11.319C66.3862 11.4342 65.1595 11.5585 64.0456 11.6918L65.2087 23.4503Z" fill="black"/>
<path d="M37.5566 42.2702C36.9498 42.3079 36.5737 41.9305 36.4283 41.138C36.3307 40.599 36.2281 39.9801 36.1206 39.2815C36.043 38.5489 35.9675 37.8482 35.8939 37.1795C35.8522 36.5088 35.8195 35.9818 35.7957 35.5985L35.0965 27.3402C34.4916 27.4098 33.9047 27.5104 33.3358 27.6419C32.7669 27.7734 32.168 27.9389 31.5391 28.1383C21.9422 28.3356 21.3653 28.3394 20.8085 28.1496C20.6768 28.0936 20.5131 28.0397 20.3175 27.9877C20.1538 27.9337 19.9732 27.8648 19.7756 27.7809C18.9528 28.9862 17.8755 29.9669 16.5438 30.7229C15.2121 31.4788 13.7318 31.9074 12.1029 32.0086C10.2824 32.1217 8.56592 31.8435 6.95333 31.1742C5.37268 30.5029 4.0746 29.4774 3.05913 28.0977C2.04167 26.686 1.46947 24.9582 1.34252 22.9141C1.22351 20.9978 1.58049 19.2603 2.41348 17.7017C3.27841 16.1411 4.46661 14.881 5.97804 13.9215C7.51942 12.928 9.24827 12.3718 11.1646 12.2528C12.9212 12.1437 14.505 12.3499 15.916 12.8714C17.3271 13.393 18.4855 14.2348 19.3913 15.3969C20.3873 15.4312 21.3644 15.4186 31.3226 15.3591C32.3107 15.2657 33.3118 15.1233 34.3259 14.9321L34.2009 12.92C34.1454 12.0257 34.0718 11.357 33.9801 10.9138C33.8865 10.4387 33.719 10.0644 33.4776 9.79082C33.2342 9.48532 32.878 9.17078 32.409 8.84723C32.0738 8.61155 31.8193 8.38689 31.6458 8.17324C31.5041 7.9576 31.5032 7.68514 31.6431 7.35584C32.1186 6.23621 32.8933 5.80337 33.9671 6.0573C34.6177 6.20926 35.2404 6.42706 35.8352 6.71075C36.4618 6.99244 37.0087 7.27911 37.4756 7.57072C38.1083 7.94823 38.4365 8.32862 38.4603 8.71188C38.3902 9.13303 38.3621 9.71189 38.3758 10.4485C38.3894 11.185 38.4191 11.9206 38.4647 12.6552L40.0446 35.0942C40.0823 35.701 40.078 36.4066 40.0318 37.211C39.9836 37.9835 39.8715 38.7599 39.6955 39.5404C39.5176 40.2888 39.2528 40.9305 38.9013 41.4653C38.5797 41.9662 38.1315 42.2345 37.5566 42.2702ZM44.9457 46.5426C44.3708 46.5783 43.9787 46.2019 43.7695 45.4134C43.6379 44.8444 43.5164 44.1787 43.4049 43.4161C43.3234 42.6196 43.2449 41.8711 43.1693 41.1704C43.1237 40.4358 43.089 39.8769 43.0652 39.4936L41.274 10.6532C41.2185 9.75892 41.1449 9.09021 41.0532 8.64704C40.9616 8.20386 40.795 7.84549 40.5536 7.57193C40.3102 7.26643 39.9051 6.93891 39.3384 6.58937C39.0031 6.3537 38.7487 6.12904 38.5751 5.91539C38.4335 5.69975 38.4316 5.41131 38.5695 5.05007C39.017 3.99631 39.7917 3.56345 40.8935 3.75151C41.6399 3.89752 42.3595 4.12537 43.052 4.43504C43.7764 4.74273 44.4051 5.05636 44.9379 5.37595C45.5366 5.72351 45.8479 6.08891 45.8717 6.47217C45.8336 6.89134 45.7895 7.47118 45.7393 8.21172C45.6891 8.95225 45.6868 9.68982 45.7324 10.4244L47.4578 38.9804C47.4955 39.5872 47.4922 40.3088 47.448 41.1451C47.4357 41.9795 47.3425 42.8029 47.1685 43.6152C46.9946 44.4276 46.7318 45.1011 46.3803 45.636C46.0307 46.2027 45.5526 46.5049 44.9457 46.5426ZM11.6492 28.5741C13.278 28.473 14.6167 27.8287 15.6651 26.6415C16.7435 25.4203 17.2182 23.7717 17.0893 21.6957C16.9544 19.5239 16.3113 17.9447 15.1599 16.9581C14.0385 15.9377 12.7113 15.4751 11.1782 15.5703C9.51743 15.6734 8.16579 16.3665 7.12332 17.6496C6.11081 18.8988 5.66803 20.5454 5.79498 22.5895C5.92788 24.7294 6.55402 26.2936 7.67345 27.2821C8.82283 28.2367 10.1481 28.6673 11.6492 28.5741ZM21.0552 25.1525C21.8876 25.1329 31.702 25.0823 32.4985 25.0007C33.295 24.9192 34.1054 24.8048 34.9299 24.6574L34.4865 17.5191C33.9476 17.6167 33.4256 17.7293 32.9205 17.8568C32.4134 17.9525 31.8924 18.081 31.3574 18.2425C31.0439 18.3581 21.7904 18.4059 21.5968 18.3859C21.4351 18.3639 21.2236 18.3129 20.9621 18.233C21.2811 19.2391 21.4753 20.3011 21.5447 21.419C21.626 22.7285 21.4629 23.973 21.0552 25.1525Z" fill="black"/>
</svg>
