<svg width="381" height="71" viewBox="0 0 381 71" fill="none" xmlns="http://www.w3.org/2000/svg">
<path d="M366.777 70.9735C365.759 70.9735 364.922 70.6359 364.265 69.9606C363.608 69.2853 363.28 68.4243 363.28 67.3776C363.28 66.3984 363.608 65.5712 364.265 64.8959C364.922 64.2206 365.759 63.8829 366.777 63.8829C367.762 63.8829 368.567 64.2206 369.191 64.8959C369.848 65.5712 370.176 66.3984 370.176 67.3776C370.176 68.4243 369.848 69.2853 369.191 69.9606C368.567 70.6359 367.762 70.9735 366.777 70.9735Z" fill="black"/>
<path d="M346.013 44.1289C345.145 43.9215 344.493 43.2993 344.059 42.2622C343.625 41.1837 343.408 39.96 343.408 38.5911V19.3644C343.408 18.037 343.299 17.083 343.082 16.5022C342.896 15.9215 342.446 15.3615 341.733 14.8222C341.081 14.3244 340.864 13.723 341.081 13.0178C341.33 12.1882 341.655 11.6904 342.058 11.5244C342.462 11.317 342.896 11.2548 343.361 11.3378C343.888 11.4208 344.524 11.6074 345.269 11.8978C346.044 12.1467 346.695 12.3748 347.223 12.5822C348.867 12.5407 350.51 12.437 352.154 12.2711C353.798 12.0637 355.272 11.8148 356.574 11.5244C357.877 11.2341 358.838 10.9437 359.459 10.6534C359.8 10.4874 360.079 10.4667 360.296 10.5911C360.513 10.7156 360.684 10.9022 360.808 11.1511C361.056 11.5659 361.289 12.1052 361.506 12.7689C361.754 13.4326 361.878 13.8681 361.878 14.0755C361.878 14.4074 361.692 14.843 361.32 15.3822C360.979 15.88 360.7 16.1289 360.482 16.1289C359.862 16.0459 359.025 16.0045 357.97 16.0045C356.946 15.963 355.83 15.963 354.62 16.0045C353.411 16.0459 352.216 16.0874 351.038 16.1289C349.859 16.1704 348.82 16.2326 347.921 16.3156V36.04C347.921 36.9526 347.998 37.5955 348.153 37.9689C348.308 38.3007 348.696 38.4459 349.316 38.4044C350.774 38.3215 352.278 38.1141 353.829 37.7822C355.38 37.4504 356.853 37.0563 358.249 36.6C359.676 36.1022 360.948 35.6252 362.064 35.1689C363.181 34.6711 364.049 34.2563 364.67 33.9244C365.166 33.6341 365.554 33.5926 365.833 33.8C366.112 33.9659 366.267 34.2355 366.298 34.6089C366.329 35.8948 365.461 37.0978 363.693 38.2178C362.824 38.757 361.676 39.3585 360.25 40.0222C358.823 40.6444 357.272 41.2667 355.597 41.8889C353.922 42.4696 352.247 42.9674 350.572 43.3822C348.898 43.797 347.378 44.0459 346.013 44.1289ZM369.462 59C368.934 59 368.593 58.4815 368.438 57.4445C368.345 56.7393 368.268 55.8889 368.206 54.8933C368.175 53.8978 368.159 52.923 368.159 51.9689C368.159 51.0148 368.159 50.2681 368.159 49.7289V12.9555C368.159 12.8726 368.159 12.7482 368.159 12.5822C368.159 11.1304 368.066 9.98963 367.88 9.16C367.725 8.33037 367.151 7.52148 366.158 6.73333C365.972 6.5674 365.802 6.38074 365.647 6.17333C365.492 5.96592 365.414 5.71704 365.414 5.42667C365.414 4.97037 365.585 4.45186 365.926 3.87112C366.267 3.29038 366.686 3 367.182 3C367.523 3 367.988 3.12445 368.578 3.37334C369.167 3.58075 369.772 3.87112 370.392 4.24446C371.013 4.57631 371.54 4.9289 371.974 5.30223C372.563 5.80001 372.858 6.29779 372.858 6.79557C372.827 7.33483 372.75 8.22667 372.625 9.47112C372.532 10.6741 372.486 11.8355 372.486 12.9555V28.6978C373.851 28.6148 375.091 28.3867 376.208 28.0133C377.325 27.5985 378.1 27.3081 378.534 27.1422C378.875 26.9763 379.154 26.9556 379.372 27.08C379.589 27.163 379.759 27.3289 379.883 27.5778C380.131 27.9926 380.38 28.5734 380.628 29.32C380.876 30.0667 381 30.5852 381 30.8756C381 31.2904 380.798 31.7052 380.395 32.12C380.023 32.4933 379.728 32.68 379.511 32.68C378.426 32.4726 377.247 32.3274 375.975 32.2444C374.735 32.1615 373.556 32.1407 372.439 32.1822V49.4178C372.439 50.2059 372.393 51.1393 372.3 52.2178C372.207 53.2963 372.036 54.3541 371.788 55.3911C371.571 56.4281 371.261 57.2785 370.857 57.9422C370.485 58.6474 370.02 59 369.462 59Z" fill="black"/>
<path d="M337.56 60C337.025 60 336.68 59.4815 336.523 58.4444C336.428 57.7393 336.35 56.8889 336.287 55.8933C336.255 54.8978 336.24 53.923 336.24 52.9689C336.24 52.0148 336.24 51.2681 336.24 50.7289V13.9555C336.24 13.8726 336.24 13.7482 336.24 13.5822C336.24 12.1304 336.146 10.9896 335.957 10.16C335.8 9.33037 335.219 8.52148 334.213 7.73333C334.025 7.5674 333.852 7.38074 333.695 7.17333C333.538 6.96592 333.459 6.71704 333.459 6.42667C333.459 5.97037 333.632 5.45186 333.977 4.87112C334.323 4.29038 334.747 4 335.25 4C335.596 4 336.067 4.12445 336.664 4.37334C337.261 4.58075 337.874 4.87112 338.502 5.24446C339.13 5.57631 339.665 5.9289 340.105 6.30223C340.702 6.80001 341 7.29779 341 7.79557C340.969 8.33483 340.89 9.22667 340.764 10.4711C340.67 11.6741 340.623 12.8355 340.623 13.9555L340.576 50.4178C340.576 51.2059 340.529 52.1393 340.435 53.2178C340.34 54.2963 340.167 55.3541 339.916 56.3911C339.696 57.4281 339.382 58.2785 338.973 58.9422C338.596 59.6474 338.125 60 337.56 60ZM312.815 44.5066C311.936 44.2992 311.276 43.6771 310.836 42.64C310.396 41.5615 310.176 40.3378 310.176 38.9689V21.6711C310.176 19.8459 310.098 18.4563 309.94 17.5022C309.815 16.5067 309.344 15.5733 308.527 14.7022C307.961 14.163 307.851 13.52 308.197 12.7734C308.511 12.1096 308.872 11.6741 309.281 11.4667C309.689 11.2593 310.098 11.2385 310.506 11.4044C311.04 11.5704 311.622 11.8815 312.25 12.3378C312.91 12.7526 313.475 13.1882 313.947 13.6445C314.292 13.9348 314.591 14.2459 314.842 14.5778C315.094 14.9096 315.203 15.2415 315.172 15.5733C315.046 16.32 314.952 17.2533 314.889 18.3733C314.826 19.4519 314.795 20.3852 314.795 21.1733V36.4178C314.795 37.3304 314.874 37.9733 315.031 38.3467C315.188 38.6785 315.581 38.8237 316.209 38.7822C317.686 38.6993 319.241 38.4918 320.875 38.16C322.54 37.8281 324.143 37.4341 325.682 36.9778C327.253 36.48 328.652 36.003 329.877 35.5467C331.102 35.0489 332.029 34.6341 332.658 34.3022C333.161 34.0118 333.553 33.9704 333.836 34.1778C334.119 34.3437 334.276 34.6133 334.307 34.9867C334.339 36.2726 333.459 37.4756 331.668 38.5956C330.788 39.1348 329.579 39.7363 328.039 40.4C326.499 41.0222 324.818 41.6444 322.996 42.2667C321.173 42.8474 319.367 43.3452 317.576 43.76C315.785 44.1748 314.198 44.4237 312.815 44.5066Z" fill="black"/>
<path d="M273.771 60C273.277 60 272.86 59.7513 272.518 59.2539C272.214 58.7979 272.062 58.0311 272.062 56.9534L272.005 46.5699C272.005 46.4456 272.005 46.2384 272.005 45.9482C272.005 44.3731 271.929 43.2332 271.777 42.5285C271.663 41.7824 271.17 41.0363 270.296 40.2902C269.689 39.7513 269.556 39.1088 269.898 38.3627C270.201 37.658 270.6 37.2435 271.094 37.1192C271.588 36.9534 272.081 36.9327 272.575 37.057C273.22 37.2228 273.942 37.5337 274.74 37.9896C275.575 38.4456 276.202 38.8394 276.619 39.171C277.303 39.7513 277.645 40.2487 277.645 40.6632C277.569 41.0777 277.493 41.5751 277.417 42.1554C277.379 42.6943 277.341 43.2539 277.303 43.8342C278.214 43.8757 279.411 43.8964 280.892 43.8964C282.373 43.8964 283.93 43.8757 285.563 43.8342C287.196 43.7928 288.734 43.7306 290.177 43.6477C291.658 43.5648 292.873 43.4819 293.822 43.399C293.822 42.1555 293.746 41.2643 293.594 40.7254C293.443 40.1451 293.025 39.627 292.341 39.171C291.544 38.6321 291.316 37.9689 291.658 37.1814C291.962 36.3938 292.36 35.9171 292.854 35.7513C293.348 35.5441 293.879 35.5233 294.449 35.6891C295.095 35.8549 295.759 36.1036 296.443 36.4352C297.126 36.7668 297.772 37.1606 298.379 37.6166C299.215 38.2384 299.633 38.7565 299.633 39.171C299.481 40.0415 299.367 41.0777 299.291 42.2798C299.215 43.4819 299.177 44.4767 299.177 45.2642V54.0933C299.177 55.627 298.797 56.9119 298.038 57.9482C297.278 59.0259 296.443 59.5648 295.531 59.5648C294.544 59.5648 293.993 58.8808 293.879 57.513C292.93 57.513 291.696 57.513 290.177 57.513C288.696 57.513 287.101 57.513 285.392 57.513C283.683 57.5544 282.069 57.5959 280.55 57.6373C279.031 57.6788 277.797 57.7202 276.847 57.7617C276.505 58.4663 276.031 59.0052 275.423 59.3783C274.853 59.7928 274.303 60 273.771 60ZM268.36 24.1865C267.524 24.3524 266.841 24.3109 266.309 24.0622C265.777 23.8135 265.454 23.5026 265.34 23.1295C265.265 22.8394 265.322 22.5492 265.511 22.2591C265.739 21.9275 265.986 21.6995 266.252 21.5751C268.151 20.6632 270.068 19.4819 272.005 18.0311C273.98 16.5803 275.803 15.0052 277.474 13.3057C279.183 11.6062 280.588 9.92745 281.689 8.26942C282.221 7.39895 282.676 6.50776 283.056 5.59584C283.436 4.68393 283.322 3.89637 282.714 3.23316C282.411 2.943 282.183 2.65284 282.031 2.36269C281.917 2.03108 281.974 1.67875 282.202 1.30569C282.619 0.601029 283.094 0.186529 283.626 0.0621784C284.195 -0.0621749 284.746 -4.67366e-06 285.278 0.248699C286.037 0.580306 286.797 1.057 287.556 1.67876C288.354 2.25907 288.961 2.7772 289.379 3.23316C290.025 4.06218 290.253 4.6632 290.063 5.03626C289.835 5.32641 289.398 5.98963 288.753 7.0259C288.107 8.02072 287.385 9.05699 286.588 10.1347C288.411 11.0881 289.987 11.8342 291.316 12.373C292.645 12.9119 293.917 13.3471 295.132 13.6788C296.386 13.9689 297.772 14.2176 299.291 14.4249C299.898 14.6321 300.487 15.0881 301.057 15.7927C301.626 16.4974 302.101 17.2643 302.481 18.0933C302.899 18.8808 303.126 19.5855 303.164 20.2073C303.202 20.5803 303.069 20.9534 302.766 21.3264C302.462 21.6995 302.101 22.0104 301.683 22.2591C301.304 22.4663 300.981 22.5699 300.715 22.5699C299.082 21.4508 297.297 20.3316 295.36 19.2124C293.462 18.0933 291.563 16.9948 289.664 15.9171C287.765 14.8394 285.98 13.8653 284.309 12.9948C282.714 14.8187 280.949 16.5388 279.012 18.1554C277.075 19.7306 275.176 21.057 273.315 22.1347C271.455 23.2124 269.803 23.8964 268.36 24.1865ZM264.942 34.0104C264.106 34.2176 263.499 34.2798 263.119 34.1969C262.777 34.114 262.397 33.9067 261.98 33.5751C261.752 33.3679 261.41 33.057 260.954 32.6425C260.537 32.228 260.119 31.8135 259.701 31.399C259.321 30.9845 259.093 30.6736 259.018 30.4663C258.942 30.1347 259.113 29.658 259.53 29.0363C259.948 28.4145 260.385 28.1243 260.84 28.1658C262.056 28.4559 263.499 28.684 265.17 28.8498C266.879 28.9741 268.682 29.057 270.581 29.0985C272.404 29.0985 274.417 29.0985 276.619 29.0985C278.822 29.057 281.044 28.9948 283.284 28.9119C285.563 28.829 287.708 28.7461 289.721 28.6632C291.734 28.5803 293.462 28.4974 294.905 28.4145C297.259 28.2487 299.443 28.0414 301.455 27.7927C303.506 27.544 305.12 27.2539 306.297 26.9223C307.057 26.715 307.57 26.6529 307.835 26.7358C308.139 26.7772 308.424 27.0259 308.69 27.4819C308.956 27.8964 309.241 28.4767 309.544 29.2228C309.848 29.9275 310 30.4249 310 30.715C309.962 31.171 309.677 31.627 309.146 32.0829C308.652 32.4974 308.291 32.7047 308.063 32.7047C307 32.5803 305.956 32.4974 304.93 32.456C303.943 32.3731 302.766 32.3109 301.399 32.2694C300.069 32.228 298.341 32.2073 296.215 32.2073C294.05 32.2073 291.601 32.2487 288.866 32.3316C286.132 32.3731 283.398 32.456 280.664 32.5803C277.929 32.7047 275.461 32.829 273.258 32.9534C271.625 33.0363 270.125 33.1814 268.758 33.3886C267.391 33.5544 266.119 33.7617 264.942 34.0104ZM277.303 53.7824C278.328 53.8238 279.581 53.8446 281.062 53.8446C282.544 53.8031 284.082 53.7824 285.676 53.7824C287.309 53.7409 288.847 53.6788 290.291 53.5959C291.734 53.513 292.911 53.43 293.822 53.3471V47.5026C292.949 47.5026 291.791 47.5026 290.348 47.5026C288.904 47.5026 287.366 47.5233 285.734 47.5648C284.101 47.6062 282.525 47.6477 281.005 47.6891C279.524 47.7306 278.29 47.772 277.303 47.8135V53.7824Z" fill="black"/>
<path d="M230.632 30.4755C228.311 30.5169 226.178 30.0817 224.232 29.1699C222.323 28.2167 220.807 26.849 219.684 25.0669C218.561 23.2433 218 21.1088 218 18.6635C218 16.3426 218.561 14.2703 219.684 12.4467C220.844 10.5817 222.379 9.11034 224.288 8.03276C226.197 6.91374 228.292 6.33349 230.575 6.29204C232.896 6.20915 235.011 6.62364 236.919 7.53544C238.828 8.44724 240.363 9.7942 241.523 11.5763C242.683 13.3585 243.263 15.5551 243.263 18.1662C243.263 20.5285 242.683 22.6216 241.523 24.4452C240.363 26.2688 238.828 27.7193 236.919 28.7969C235.011 29.833 232.915 30.3926 230.632 30.4755ZM248.765 61C246.781 61 245.116 60.6063 243.768 59.8188C242.421 59.0728 241.411 58.1196 240.737 56.9591C240.063 55.8401 239.726 54.721 239.726 53.602C239.726 52.4415 240.044 51.281 240.681 50.1206C241.317 48.9601 242.309 47.9862 243.656 47.1987C245.003 46.3698 246.744 45.9346 248.877 45.8931C251.759 45.8103 253.967 46.4941 255.502 47.9447C257.074 49.3539 257.86 51.1153 257.86 53.229C257.86 54.4309 257.504 55.6328 256.793 56.8348C256.082 58.0367 255.053 59.0314 253.705 59.8188C252.358 60.6063 250.711 61 248.765 61ZM253.032 33.3352C252.32 33.3352 251.89 32.9207 251.74 32.0918C251.591 31.0143 251.478 29.8538 251.404 28.6104C251.366 27.3256 251.347 26.3102 251.347 25.5642V10.0221C251.347 8.86167 251.31 7.9913 251.235 7.41106C251.16 6.78938 250.954 6.29205 250.618 5.91905C250.318 5.54604 249.813 5.09015 249.102 4.55136C248.728 4.30269 248.447 4.01256 248.26 3.681C248.11 3.34944 248.129 2.97643 248.316 2.56198C248.615 1.85741 249.008 1.4015 249.495 1.19427C249.981 0.987045 250.524 0.945604 251.123 1.06994C251.984 1.23572 252.863 1.56729 253.761 2.06463C254.66 2.52053 255.408 2.97642 256.007 3.43232C256.681 3.92966 257.018 4.44775 257.018 4.98654C256.943 5.52533 256.849 6.27134 256.737 7.22459C256.625 8.17783 256.568 9.13109 256.568 10.0843V19.4717C258.028 19.3059 259.338 19.0572 260.498 18.7257C261.696 18.3527 262.538 18.0833 263.025 17.9175C263.436 17.7517 263.773 17.731 264.035 17.8553C264.297 17.9382 264.503 18.104 264.653 18.3527C264.952 18.7671 265.251 19.3474 265.551 20.0934C265.85 20.8394 266 21.3575 266 21.6476C266 22.0621 265.757 22.4765 265.27 22.891C264.821 23.3054 264.465 23.5126 264.204 23.5126C263.043 23.3054 261.789 23.1811 260.442 23.1396C259.132 23.0567 257.841 23.0153 256.568 23.0153V25.1912C256.568 26.2273 256.456 27.3878 256.232 28.6726C256.044 29.9574 255.689 31.0557 255.165 31.9675C254.641 32.8793 253.93 33.3352 253.032 33.3352ZM230.575 26.3724C232.634 26.2895 234.356 25.5435 235.74 24.1343C237.125 22.6837 237.818 20.6943 237.818 18.1662C237.818 15.3893 237.106 13.3792 235.684 12.1359C234.299 10.8511 232.615 10.2708 230.632 10.3951C228.536 10.5195 226.795 11.2862 225.411 12.6954C224.026 14.1045 223.333 16.0732 223.333 18.6013C223.333 21.171 224.026 23.1396 225.411 24.5073C226.795 25.8336 228.517 26.4552 230.575 26.3724ZM226.646 59.3837C225.523 59.3008 224.699 58.7205 224.175 57.6429C223.651 56.5653 223.389 55.2598 223.389 53.7264V47.9447C223.389 47.8204 223.389 47.6339 223.389 47.3852C223.389 46.3076 223.352 45.4373 223.277 44.7741C223.24 44.111 223.09 43.5515 222.828 43.0956C222.566 42.6397 222.098 42.1631 221.425 41.6657C220.826 41.1684 220.695 40.526 221.032 39.7385C221.331 39.0754 221.724 38.6402 222.211 38.433C222.734 38.1843 223.24 38.1429 223.726 38.3087C224.363 38.4744 225.036 38.7646 225.747 39.179C226.496 39.552 227.151 39.9665 227.712 40.4224C228.573 41.044 229.004 41.6657 229.004 42.2874C228.854 42.8677 228.742 43.6965 228.667 44.7741C228.592 45.8103 228.554 46.7428 228.554 47.5717V51.9234C228.554 52.7938 228.611 53.3326 228.723 53.5398C228.873 53.7471 229.191 53.8299 229.677 53.7885C230.725 53.7056 232.016 53.4777 233.551 53.1047C235.085 52.6902 236.377 52.2343 237.425 51.737C237.874 51.5297 238.267 51.4676 238.604 51.5504C238.978 51.6333 239.202 51.7991 239.277 52.0478C239.464 52.7938 239.296 53.4777 238.772 54.0993C238.248 54.721 237.687 55.2391 237.088 55.6535C236.751 55.8608 236.171 56.1509 235.347 56.5239C234.561 56.9384 233.644 57.3528 232.596 57.7673C231.586 58.1817 230.538 58.534 229.453 58.8241C228.405 59.1557 227.469 59.3422 226.646 59.3837ZM239.221 45.458C238.622 45.5409 238.192 45.5616 237.93 45.5202C237.705 45.4373 237.425 45.2508 237.088 44.9606C236.826 44.7534 236.47 44.4011 236.021 43.9038C235.609 43.4064 235.31 43.0127 235.123 42.7226C235.048 42.3496 235.179 41.9351 235.516 41.4792C235.853 40.9819 236.171 40.7332 236.47 40.7332C237.593 41.0233 239.109 41.2305 241.018 41.3549C242.926 41.4378 245.078 41.4585 247.474 41.4171C250.58 41.3342 253.2 41.1269 255.333 40.7954C257.467 40.4638 258.889 40.2151 259.6 40.0493C260.012 39.9664 260.311 39.9664 260.498 40.0493C260.685 40.0908 260.854 40.2151 261.004 40.4224C261.265 40.9612 261.453 41.4999 261.565 42.0387C261.715 42.5361 261.789 42.8884 261.789 43.0956C261.789 43.3857 261.584 43.7173 261.172 44.0903C260.76 44.4633 260.442 44.6498 260.218 44.6498C258.908 44.5255 257.242 44.4426 255.221 44.4011C253.237 44.3182 251.029 44.3389 248.596 44.4633C247.174 44.5462 245.621 44.6705 243.937 44.8363C242.253 45.0021 240.681 45.2093 239.221 45.458ZM246.8 39.179C245.977 39.0132 245.022 38.7645 243.937 38.433C242.851 38.06 241.953 37.5212 241.242 36.8166C241.092 36.485 241.13 36.0291 241.354 35.4489C241.616 34.8687 241.991 34.5785 242.477 34.5785C243.712 34.8272 245.041 34.993 246.463 35.0759C247.885 35.1588 249.27 35.1795 250.618 35.1381C252.002 35.0552 253.2 34.9308 254.211 34.7651C254.734 34.8065 255.127 34.9516 255.389 35.2002C255.689 35.4489 255.857 35.739 255.895 36.0706C255.932 36.4022 255.839 36.8373 255.614 37.3761C255.389 37.9149 255.053 38.3086 254.604 38.5573C253.63 38.9303 252.433 39.1583 251.011 39.2412C249.626 39.2826 248.222 39.2619 246.8 39.179ZM248.709 56.8969C250.019 56.814 251.01 56.3996 251.684 55.6535C252.358 54.9075 252.713 53.975 252.751 52.856C252.788 52.0685 252.508 51.2396 251.909 50.3692C251.347 49.4989 250.374 49.0844 248.989 49.1259C247.38 49.1673 246.257 49.6025 245.621 50.4314C245.022 51.2189 244.723 52.1307 244.723 53.1668C244.723 54.1201 245.078 54.9904 245.789 55.7779C246.501 56.5653 247.474 56.9383 248.709 56.8969Z" fill="black"/>
<path d="M156.052 45.4445C155.749 45.6519 155.295 45.8178 154.689 45.9422C154.083 46.0252 153.515 46.0045 152.985 45.88C152.492 45.7556 152.17 45.4652 152.019 45.0089C151.981 44.8015 152 44.5526 152.076 44.2622C152.151 43.9718 152.36 43.6815 152.701 43.3911C154.632 41.7733 156.469 39.8652 158.211 37.6667C159.991 35.4267 161.563 33.1245 162.926 30.76C164.327 28.3956 165.445 26.1763 166.278 24.1022C167.111 21.9867 167.546 20.2445 167.584 18.8756C167.584 18.4193 167.471 17.9422 167.243 17.4445C166.069 17.5689 164.876 17.7141 163.665 17.88C162.453 18.0045 161.279 18.1704 160.142 18.3778C160.105 18.3778 160.067 18.3778 160.029 18.3778C159.385 18.5437 158.931 18.6267 158.665 18.6267C158.438 18.5852 158.116 18.357 157.7 17.9422C157.435 17.6933 157.018 17.237 156.45 16.5733C155.92 15.9096 155.56 15.3911 155.371 15.0178C155.295 14.6445 155.446 14.2089 155.825 13.7111C156.204 13.1719 156.545 12.9022 156.848 12.9022C158.059 13.1926 159.536 13.3585 161.279 13.4C163.059 13.4415 164.952 13.4415 166.959 13.4C170.898 13.2341 174.004 12.9644 176.276 12.5911C178.586 12.2178 180.196 11.9482 181.105 11.7822C181.521 11.6993 181.824 11.6993 182.014 11.7822C182.241 11.8652 182.43 12.0311 182.582 12.28C182.885 12.8193 183.131 13.4415 183.32 14.1467C183.509 14.8519 183.604 15.3081 183.604 15.5155C183.604 15.8474 183.377 16.2415 182.922 16.6978C182.506 17.1126 182.165 17.32 181.9 17.32C180.915 17.2371 179.495 17.1748 177.639 17.1333C175.784 17.0919 173.909 17.1126 172.015 17.1956C172.545 17.6104 172.981 18.0667 173.322 18.5645C173.701 19.0208 173.852 19.4148 173.776 19.7467C173.398 21.0741 172.943 22.4015 172.413 23.7289C171.921 25.0148 171.353 26.3007 170.709 27.5867C173.019 29.7437 175.026 31.3615 176.73 32.44C178.472 33.4771 179.931 34.2859 181.105 34.8667C181.673 35.24 182.165 35.8207 182.582 36.6089C182.998 37.397 183.339 38.2059 183.604 39.0356C183.869 39.8237 184.021 40.5082 184.059 41.0889C184.021 41.7111 183.623 42.2711 182.866 42.7689C182.146 43.2252 181.464 43.3704 180.821 43.2045C180.139 42.2919 179.287 41.2548 178.264 40.0933C177.242 38.9319 176.162 37.7496 175.026 36.5467C173.89 35.3437 172.792 34.2237 171.731 33.1866C170.709 32.1081 169.819 31.237 169.061 30.5733C167.774 32.8133 166.353 34.9082 164.801 36.8578C163.286 38.8074 161.771 40.5289 160.256 42.0222C158.741 43.4741 157.34 44.6148 156.052 45.4445ZM189.853 61C189.209 61 188.793 60.4815 188.603 59.4444C188.49 58.7393 188.395 57.8889 188.319 56.8933C188.281 55.8978 188.262 54.923 188.262 53.9689C188.262 53.0148 188.262 52.2681 188.262 51.7289V14.9555C188.262 14.8726 188.262 14.7482 188.262 14.5822C188.262 13.1304 188.149 11.9896 187.922 11.16C187.732 10.3304 187.032 9.52148 185.82 8.73333C185.592 8.5674 185.384 8.38074 185.195 8.17333C185.005 7.96592 184.911 7.71704 184.911 7.42667C184.911 6.97037 185.119 6.45186 185.536 5.87112C185.952 5.29038 186.463 5 187.069 5C187.486 5 188.054 5.12445 188.774 5.37334C189.493 5.58075 190.232 5.87112 190.989 6.24446C191.747 6.57631 192.39 6.9289 192.921 7.30223C193.64 7.80001 194 8.29779 194 8.79557C193.962 9.33483 193.867 10.2267 193.716 11.4711C193.602 12.6741 193.545 13.8355 193.545 14.9555L193.489 51.4178C193.489 52.2059 193.432 53.1393 193.318 54.2178C193.205 55.2963 192.996 56.3541 192.693 57.3911C192.428 58.4281 192.05 59.2785 191.557 59.9422C191.103 60.6474 190.535 61 189.853 61Z" fill="black"/>
<path d="M117.052 44.4444C116.749 44.6519 116.295 44.8178 115.689 44.9422C115.083 45.0252 114.515 45.0045 113.985 44.88C113.492 44.7556 113.17 44.4652 113.019 44.0089C112.981 43.8015 113 43.5526 113.076 43.2622C113.151 42.9718 113.36 42.6815 113.701 42.3911C115.632 40.7733 117.469 38.8652 119.211 36.6667C120.991 34.4267 122.563 32.1245 123.926 29.76C125.327 27.3956 126.445 25.1763 127.278 23.1022C128.111 20.9867 128.546 19.2445 128.584 17.8756C128.584 17.4193 128.471 16.9422 128.243 16.4445C127.069 16.5689 125.876 16.7141 124.665 16.88C123.453 17.0045 122.279 17.1704 121.142 17.3778C121.105 17.3778 121.067 17.3778 121.029 17.3778C120.385 17.5437 119.931 17.6267 119.665 17.6267C119.438 17.5852 119.116 17.357 118.7 16.9422C118.435 16.6933 118.018 16.237 117.45 15.5733C116.92 14.9096 116.56 14.3911 116.371 14.0178C116.295 13.6445 116.446 13.2089 116.825 12.7111C117.204 12.1719 117.545 11.9022 117.848 11.9022C119.059 12.1926 120.536 12.3585 122.279 12.4C124.059 12.4415 125.952 12.4415 127.959 12.4C131.898 12.2341 135.004 11.9644 137.276 11.5911C139.586 11.2178 141.196 10.9482 142.105 10.7822C142.521 10.6993 142.824 10.6993 143.014 10.7822C143.241 10.8652 143.43 11.0311 143.582 11.28C143.885 11.8193 144.131 12.4415 144.32 13.1467C144.509 13.8519 144.604 14.3081 144.604 14.5155C144.604 14.8474 144.377 15.2415 143.922 15.6978C143.506 16.1126 143.165 16.32 142.9 16.32C141.915 16.2371 140.495 16.1748 138.639 16.1333C136.784 16.0919 134.909 16.1126 133.015 16.1956C133.545 16.6104 133.981 17.0667 134.322 17.5645C134.701 18.0208 134.852 18.4148 134.776 18.7467C134.398 20.0741 133.943 21.4015 133.413 22.7289C132.921 24.0148 132.353 25.3007 131.709 26.5867C134.019 28.7437 136.026 30.3615 137.73 31.44C139.472 32.477 140.931 33.2859 142.105 33.8667C142.673 34.24 143.165 34.8207 143.582 35.6089C143.998 36.397 144.339 37.2059 144.604 38.0355C144.869 38.8237 145.021 39.5082 145.059 40.0889C145.021 40.7111 144.623 41.2711 143.866 41.7689C143.146 42.2252 142.464 42.3704 141.821 42.2045C141.139 41.2919 140.287 40.2548 139.264 39.0933C138.242 37.9319 137.162 36.7496 136.026 35.5467C134.89 34.3437 133.792 33.2237 132.731 32.1866C131.709 31.1081 130.819 30.237 130.061 29.5733C128.774 31.8133 127.353 33.9082 125.801 35.8578C124.286 37.8074 122.771 39.5289 121.256 41.0222C119.741 42.4741 118.34 43.6148 117.052 44.4444ZM150.853 60C150.209 60 149.793 59.4815 149.603 58.4444C149.49 57.7393 149.395 56.8889 149.319 55.8933C149.281 54.8978 149.262 53.923 149.262 52.9689C149.262 52.0148 149.262 51.2681 149.262 50.7289V13.9555C149.262 13.8726 149.262 13.7482 149.262 13.5822C149.262 12.1304 149.149 10.9896 148.922 10.16C148.732 9.33037 148.032 8.52148 146.82 7.73333C146.592 7.5674 146.384 7.38074 146.195 7.17333C146.005 6.96592 145.911 6.71704 145.911 6.42667C145.911 5.97037 146.119 5.45186 146.536 4.87112C146.952 4.29038 147.463 4 148.069 4C148.486 4 149.054 4.12445 149.774 4.37334C150.493 4.58075 151.232 4.87112 151.989 5.24446C152.747 5.57631 153.39 5.9289 153.921 6.30223C154.64 6.80001 155 7.29779 155 7.79557C154.962 8.33483 154.867 9.22667 154.716 10.4711C154.602 11.6741 154.545 12.8355 154.545 13.9555L154.489 50.4178C154.489 51.2059 154.432 52.1393 154.318 53.2178C154.205 54.2963 153.996 55.3541 153.693 56.3911C153.428 57.4281 153.05 58.2785 152.557 58.9422C152.103 59.6474 151.535 60 150.853 60Z" fill="black"/>
<path d="M94.4953 60.8518C93.8133 60.8919 93.3502 60.4027 93.1061 59.3842C92.8641 58.4069 92.6859 57.1985 92.5714 55.7592C92.4926 54.2765 92.4303 53.1026 92.3843 52.2377C92.3712 51.9906 92.3624 51.8258 92.3581 51.7434L91.1107 28.2667C90.2794 28.357 89.6196 28.4578 89.1314 28.5692C88.3045 28.7418 87.6659 28.8827 87.2156 28.9918C86.7653 29.101 86.092 29.3059 85.1959 29.6065C84.4491 29.8571 83.766 29.8767 83.1467 29.6652C82.8771 29.5985 82.5642 29.431 82.2078 29.1628C82.0987 31.4003 81.4838 33.4196 80.3633 35.2208C79.2428 37.0221 77.7818 38.4922 75.98 39.6312C74.176 40.729 72.1775 41.3838 69.9843 41.5955C67.5996 41.7773 65.3758 41.4124 63.3131 40.501C61.286 39.5461 59.6338 38.1353 58.3565 36.2687C57.0791 34.402 56.3736 32.2125 56.2401 29.7001C56.111 27.2701 56.5823 25.0525 57.654 23.0476C58.7257 21.0426 60.2159 19.4055 62.1248 18.1363C64.0694 16.8236 66.2341 16.0765 68.6188 15.8947C70.7383 15.7286 72.7092 15.9844 74.5315 16.6621C76.3895 17.2964 77.9452 18.3204 79.1985 19.7339C80.4897 21.1453 81.3826 22.9313 81.8775 25.0919C83.2123 25.1786 84.6565 25.1762 86.2099 25.0847C87.799 24.9498 89.3669 24.7749 90.9137 24.5599L90.382 14.5514C90.3207 13.3981 90.2179 12.5365 90.0736 11.9666C89.9672 11.3944 89.7336 10.9331 89.373 10.5825C89.048 10.1884 88.5124 9.76546 87.7663 9.3136C87.3743 9.08879 87.0748 8.81722 86.8679 8.49887C86.6988 8.1783 86.6969 7.78591 86.8623 7.3217C87.1282 6.60367 87.5019 6.12718 87.9835 5.89224C88.4651 5.65731 89.0123 5.58378 89.6251 5.67165C90.5053 5.78509 91.4321 6.06105 92.4056 6.49953C93.379 6.938 94.1808 7.36591 94.8111 7.78328C95.5193 8.23737 95.8866 8.71157 95.9129 9.20581C95.8655 9.74571 95.8102 10.4926 95.7469 11.4466C95.6836 12.4006 95.6771 13.3513 95.7274 14.2986L95.3072 22.0154L100.228 24L100.408 27.5L96.2126 29.1628L97.627 51.1233C97.6685 51.9059 97.6609 52.836 97.6042 53.9135C97.5474 54.9911 97.4138 56.0525 97.2033 57.0978C96.9927 58.1431 96.6588 59.0098 96.2012 59.6978C95.7838 60.4247 95.2151 60.8094 94.4953 60.8518ZM69.6878 37.0889C71.7651 36.8427 73.4631 35.8957 74.7818 34.2481C76.0983 32.5592 76.6908 30.4791 76.5595 28.0079C76.4195 25.3719 75.6103 23.3744 74.1318 22.0154C72.6512 20.6152 70.888 19.9754 68.842 20.0958C67.4781 20.1761 66.2485 20.641 65.1535 21.4905C64.0584 22.34 63.2061 23.4644 62.5963 24.8637C62.0222 26.2196 61.7779 27.7007 61.8632 29.307C61.9967 31.8195 62.8238 33.7953 64.3445 35.2344C65.8652 36.6736 67.6463 37.2918 69.6878 37.0889Z" fill="black"/>
<path d="M5.82395 33.0031C4.89509 32.9204 4.11483 32.4038 3.48321 31.4533C2.88874 30.5028 2.59154 29.3663 2.59154 28.0438V16.0176C2.59154 14.6952 2.48006 13.7653 2.25713 13.228C2.0342 12.6908 1.56977 12.2155 0.863843 11.8023C0.455146 11.5543 0.19506 11.327 0.0835971 11.1204C-0.0278657 10.9137 -0.0278657 10.5831 0.0835971 10.1285C0.269369 9.30197 0.603754 8.78538 1.08676 8.57875C1.56977 8.37211 2.08994 8.31011 2.64725 8.39276C3.05595 8.43409 3.52038 8.51678 4.04054 8.64076C4.59785 8.76474 5.11802 8.8887 5.60103 9.01269C6.67851 8.97136 7.70022 8.84739 8.66623 8.64076C9.63224 8.43412 10.5797 8.18615 11.5086 7.89686C11.9173 7.73155 12.233 7.69023 12.456 7.77288C12.6789 7.85554 12.8647 8.02082 13.0133 8.26879C13.3105 8.76471 13.5706 9.26066 13.7935 9.75659L13.9607 9.26064C14.2951 8.39277 14.7038 7.9175 15.1868 7.83485C15.6698 7.71087 16.0785 7.69023 16.4129 7.77288C16.9331 7.85554 17.4347 7.9795 17.9177 8.14481C18.4378 8.26879 18.9023 8.3928 19.311 8.51678C20.7228 8.47545 22.0789 8.33081 23.3793 8.08284C24.6797 7.83488 25.7944 7.50426 26.7232 7.09099C27.1319 6.88436 27.4478 6.84303 27.6707 6.96702C27.8936 7.04967 28.0794 7.21496 28.228 7.46292C28.5252 7.87619 28.7853 8.3721 29.0083 8.95068C29.2312 9.48793 29.3426 9.85991 29.3426 10.0665C29.3426 10.3558 29.1568 10.7278 28.7853 11.1824C28.4509 11.637 28.1537 11.8436 27.8936 11.8023C26.7418 11.7196 25.5529 11.7196 24.3268 11.8023C23.1378 11.8436 21.8932 11.9263 20.5928 12.0503V25.3162C20.5928 26.1841 20.6857 26.7627 20.8715 27.052C21.0572 27.2999 21.4845 27.4033 22.1533 27.3619C23.7509 27.1966 25.2185 26.9693 26.556 26.68C27.8936 26.3494 29.1383 25.9568 30.2901 25.5022C30.8102 25.2956 31.1818 25.2956 31.4047 25.5022C31.6276 25.7088 31.739 26.0188 31.739 26.4321C31.739 26.9693 31.609 27.4653 31.3489 27.9198C31.126 28.3744 30.643 28.829 29.8999 29.2836C29.1568 29.7382 28.1165 30.2135 26.7789 30.7094C25.4785 31.2053 24.0853 31.6393 22.5991 32.0112C21.1129 32.3832 19.7754 32.6312 18.5864 32.7551C17.8434 32.6725 17.1931 32.2179 16.6358 31.3913C16.1157 30.5648 15.7627 29.6142 15.5769 28.5397C14.6852 29.1183 13.6263 29.7589 12.4003 30.4615C11.1742 31.1227 9.96666 31.7013 8.77773 32.1972C7.58879 32.6518 6.60419 32.9204 5.82395 33.0031ZM17.6948 59.969C16.8402 59.9277 16.0228 59.4731 15.2425 58.6052C14.4995 57.7787 14.128 56.5182 14.128 54.8238V50.6704C14.0908 50.4224 13.8865 50.1538 13.5149 49.8645C13.0691 49.5339 12.6975 49.2446 12.4003 48.9967C12.1402 48.7074 11.9916 48.4594 11.9544 48.2528C11.9916 47.9222 12.1587 47.4882 12.456 46.951C12.7532 46.3724 13.0876 46.0624 13.4591 46.0211C14.3137 46.1451 15.2983 46.2484 16.4129 46.3311C17.5275 46.3724 18.4378 46.4137 19.1438 46.455C19.8869 46.4964 20.8715 46.517 22.0975 46.517C23.3608 46.4757 24.7355 46.4344 26.2217 46.3931C27.7079 46.3517 29.2126 46.2897 30.7359 46.2071C32.2592 46.0831 33.6525 45.9591 34.9157 45.8352C34.9901 45.0913 35.0458 44.2854 35.083 43.4175C35.1201 42.5496 35.1387 41.7231 35.1387 40.9379C35.1387 40.6072 35.0829 40.4213 34.9715 40.38C34.86 40.2973 34.6928 40.256 34.4699 40.256C34.0612 40.256 33.3553 40.2973 32.3521 40.38C31.3489 40.4213 30.2157 40.4833 28.9525 40.5659C27.7264 40.6073 26.5189 40.6693 25.33 40.7519C24.1782 40.8346 23.2308 40.8965 22.4877 40.9379C22.1161 40.9379 21.596 40.9792 20.9272 41.0619C20.2956 41.1032 19.6268 41.1652 18.9209 41.2478C18.2521 41.3305 17.6762 41.4338 17.1932 41.5578C16.4501 41.7231 15.9113 41.7851 15.5769 41.7438C15.2426 41.7024 14.9082 41.5371 14.5738 41.2478C14.2022 40.9172 13.7378 40.4626 13.1805 39.884C12.6603 39.3055 12.3631 38.9335 12.2888 38.7682C12.2144 38.3963 12.3445 37.9623 12.6789 37.4664C13.0133 36.9705 13.3848 36.6812 13.7935 36.5985C15.2426 36.9291 16.8959 37.1151 18.7536 37.1564C20.6485 37.1564 22.6548 37.1358 24.7726 37.0945C26.0359 37.0531 27.3549 36.9911 28.7296 36.9085C30.1414 36.8258 31.4419 36.7019 32.6308 36.5366C33.8197 36.3713 34.6928 36.1853 35.2502 35.9786C35.5102 35.8547 35.696 35.7927 35.8075 35.7927C35.9189 35.7927 36.049 35.8133 36.1976 35.8547C36.3091 35.896 36.4019 35.9166 36.4762 35.9166L40.4889 36.8465C41.0834 36.9705 41.2691 37.4457 41.0462 38.2723C40.9719 38.6029 40.8233 39.1815 40.6004 40.008C40.3775 40.8346 40.1545 41.7438 39.9316 42.7356C39.7458 43.6861 39.5786 44.5334 39.43 45.2772C39.8387 45.5252 40.2474 45.8558 40.6561 46.2691C41.102 46.641 41.3248 46.9303 41.3248 47.1369C41.3248 47.6329 41.1577 48.1701 40.8233 48.7487C40.5261 49.3273 40.1545 49.6992 39.7086 49.8645C38.5197 49.8232 37.0521 49.8026 35.3059 49.8026C33.5596 49.8026 31.7205 49.8232 29.7884 49.8645C27.8564 49.9059 25.9801 49.9679 24.1596 50.0505C22.3762 50.1332 20.8157 50.2158 19.4782 50.2985V53.8319C19.4782 54.4932 19.5338 55.0304 19.6453 55.4437C19.7939 55.8157 20.0912 56.0223 20.5371 56.0636C21.9489 56.1463 23.6208 56.1669 25.5529 56.1256C27.522 56.0843 29.3612 56.043 31.0703 56.0016C33.7083 55.919 35.8818 55.7123 37.5909 55.3817C39.3 55.0511 40.4518 54.7618 41.0462 54.5138C41.4549 54.3072 41.7893 54.2866 42.0494 54.4519C42.3095 54.5758 42.5138 54.7618 42.6624 55.0098C42.9597 55.423 43.2569 55.9603 43.5542 56.6215C43.8514 57.2827 44 57.7167 44 57.9233C44 58.2539 43.777 58.6672 43.3312 59.1631C42.9225 59.6591 42.5881 59.907 42.328 59.907C41.8078 59.8657 40.9905 59.8244 39.8759 59.7831C38.7984 59.7831 37.5723 59.7624 36.1976 59.721C34.8229 59.721 33.4296 59.7417 32.0178 59.7831C31.7577 59.7831 31.3118 59.7831 30.6802 59.7831C30.0857 59.8244 29.3797 59.845 28.5624 59.845C27.3734 59.8864 26.0731 59.907 24.6612 59.907C23.2493 59.9484 21.9117 59.969 20.6485 59.969C19.3852 60.0103 18.4007 60.0103 17.6948 59.969ZM37.5351 34.2429C36.8292 34.2429 36.4019 33.8296 36.2533 33.0031C36.1047 31.9286 35.9932 30.7714 35.9189 29.5316C35.8818 28.2504 35.8632 27.2379 35.8632 26.4941V19.9231C33.6339 20.171 31.7019 20.5223 30.0671 20.9769C29.9928 20.9769 29.8999 20.9976 29.7884 21.0389C29.4912 21.1215 29.194 21.1835 28.8968 21.2248C28.6367 21.2662 28.3394 21.2042 28.005 21.0389C27.7821 20.9149 27.4106 20.7083 26.8904 20.419C26.4074 20.0884 25.943 19.7577 25.4972 19.4271C25.0885 19.0965 24.8655 18.8485 24.8283 18.6832C24.6797 18.1873 24.7912 17.6914 25.1627 17.1955C25.5714 16.6582 25.9616 16.3896 26.3331 16.3896C26.8161 16.4722 27.4849 16.5549 28.3394 16.6375C29.194 16.6789 30.03 16.6995 30.8474 16.6995C31.5533 16.6995 32.3336 16.6789 33.1881 16.6375C34.0427 16.5549 34.9343 16.4929 35.8632 16.4516V10.9964C35.8632 9.83923 35.826 8.97134 35.7517 8.39276C35.6774 7.77285 35.473 7.27695 35.1387 6.90501C34.8414 6.53306 34.3399 6.07848 33.634 5.54122C33.2624 5.29326 32.9838 5.00396 32.798 4.67335C32.6494 4.34273 32.6679 3.97079 32.8537 3.55752C33.1509 2.85496 33.5411 2.40035 34.0241 2.19372C34.5071 1.98708 35.0458 1.94576 35.6403 2.06974C36.4948 2.23505 37.3679 2.56567 38.2596 3.06159C39.1513 3.51619 39.8944 3.97078 40.4889 4.42537C41.1577 4.9213 41.4921 5.43791 41.4921 5.97516C41.4177 6.51242 41.3249 7.2563 41.2134 8.20682C41.102 9.15734 41.0462 10.1079 41.0462 11.0584V26.1221C41.0462 27.1553 40.9347 28.3125 40.7118 29.5936C40.526 30.8747 40.1731 31.9699 39.6529 32.8791C39.1328 33.7883 38.4268 34.2429 37.5351 34.2429ZM9.16785 27.3619C9.91093 27.1966 10.8769 26.9073 12.0658 26.4941C13.2919 26.0395 14.4438 25.5436 15.5212 25.0063V14.9638C15.5212 14.9225 15.5212 14.8398 15.5212 14.7158C15.5212 13.724 15.4655 12.9388 15.354 12.3602C15.2426 11.7403 14.8339 11.2857 14.128 10.9964C14.0536 11.327 13.8493 11.6576 13.5149 11.9882C13.1805 12.3189 12.9018 12.4841 12.6789 12.4841C11.0069 12.4428 9.39075 12.4428 7.83027 12.4841V25.5022C7.83027 26.3701 7.88602 26.928 7.99748 27.1759C8.10894 27.4239 8.49907 27.4859 9.16785 27.3619Z" fill="black"/>
</svg>
